<mxfile host="Electron" modified="2024-02-14T12:19:57.440Z" agent="Mozilla/5.0 (Windows NT 10.0; Win64; x64) AppleWebKit/537.36 (KHTML, like Gecko) draw.io/23.0.2 Chrome/120.0.6099.109 Electron/28.1.0 Safari/537.36" etag="N4vDvpjbFu2EbXIrxgtI" version="23.0.2" type="device">
  <diagram name="Page-1" id="2YBvvXClWsGukQMizWep">
    <mxGraphModel dx="2049" dy="2294" grid="1" gridSize="10" guides="1" tooltips="1" connect="1" arrows="1" fold="1" page="1" pageScale="1" pageWidth="850" pageHeight="1100" math="0" shadow="0">
      <root>
        <mxCell id="0" />
        <mxCell id="1" parent="0" />
        <mxCell id="PiuN6YdRs1sVkymYL6tR-44" style="edgeStyle=orthogonalEdgeStyle;rounded=0;orthogonalLoop=1;jettySize=auto;html=1;" parent="1" source="PiuN6YdRs1sVkymYL6tR-1" target="PiuN6YdRs1sVkymYL6tR-21" edge="1">
          <mxGeometry relative="1" as="geometry" />
        </mxCell>
        <mxCell id="PiuN6YdRs1sVkymYL6tR-50" style="edgeStyle=orthogonalEdgeStyle;rounded=0;orthogonalLoop=1;jettySize=auto;html=1;" parent="1" source="PiuN6YdRs1sVkymYL6tR-1" target="PiuN6YdRs1sVkymYL6tR-13" edge="1">
          <mxGeometry relative="1" as="geometry" />
        </mxCell>
        <mxCell id="PiuN6YdRs1sVkymYL6tR-51" style="edgeStyle=orthogonalEdgeStyle;rounded=0;orthogonalLoop=1;jettySize=auto;html=1;" parent="1" source="PiuN6YdRs1sVkymYL6tR-1" target="PiuN6YdRs1sVkymYL6tR-12" edge="1">
          <mxGeometry relative="1" as="geometry" />
        </mxCell>
        <mxCell id="PiuN6YdRs1sVkymYL6tR-52" style="edgeStyle=orthogonalEdgeStyle;rounded=0;orthogonalLoop=1;jettySize=auto;html=1;" parent="1" source="PiuN6YdRs1sVkymYL6tR-1" target="PiuN6YdRs1sVkymYL6tR-10" edge="1">
          <mxGeometry relative="1" as="geometry">
            <Array as="points">
              <mxPoint x="460" y="220" />
              <mxPoint x="460" y="470" />
            </Array>
          </mxGeometry>
        </mxCell>
        <mxCell id="PiuN6YdRs1sVkymYL6tR-1" value="" style="shape=umlActor;verticalLabelPosition=bottom;verticalAlign=top;html=1;" parent="1" vertex="1">
          <mxGeometry x="10" y="100" width="70" height="240" as="geometry" />
        </mxCell>
        <mxCell id="PiuN6YdRs1sVkymYL6tR-2" value="" style="shape=umlActor;verticalLabelPosition=bottom;verticalAlign=top;html=1;" parent="1" vertex="1">
          <mxGeometry x="60" y="1730" width="90" height="200" as="geometry" />
        </mxCell>
        <mxCell id="PiuN6YdRs1sVkymYL6tR-10" value="Laisser un témoignages" style="ellipse;whiteSpace=wrap;html=1;" parent="1" vertex="1">
          <mxGeometry x="1240" y="370" width="200" height="120" as="geometry" />
        </mxCell>
        <mxCell id="PiuN6YdRs1sVkymYL6tR-11" value="Prendre contact&amp;nbsp;&lt;br&gt;pour une voiture" style="ellipse;whiteSpace=wrap;html=1;" parent="1" vertex="1">
          <mxGeometry x="1060" y="-50" width="120" height="80" as="geometry" />
        </mxCell>
        <mxCell id="PiuN6YdRs1sVkymYL6tR-12" value="Prendre contact" style="ellipse;whiteSpace=wrap;html=1;" parent="1" vertex="1">
          <mxGeometry x="930" y="150" width="220" height="140" as="geometry" />
        </mxCell>
        <mxCell id="PiuN6YdRs1sVkymYL6tR-13" value="Afficher les témoignages" style="ellipse;whiteSpace=wrap;html=1;" parent="1" vertex="1">
          <mxGeometry x="370" y="520" width="220" height="120" as="geometry" />
        </mxCell>
        <mxCell id="PiuN6YdRs1sVkymYL6tR-17" value="Filtre Année" style="ellipse;whiteSpace=wrap;html=1;" parent="1" vertex="1">
          <mxGeometry x="120" y="-220" width="120" height="80" as="geometry" />
        </mxCell>
        <mxCell id="PiuN6YdRs1sVkymYL6tR-18" value="Filtres" style="ellipse;whiteSpace=wrap;html=1;" parent="1" vertex="1">
          <mxGeometry x="230" y="-70" width="120" height="80" as="geometry" />
        </mxCell>
        <mxCell id="PiuN6YdRs1sVkymYL6tR-19" value="Filtre Kilométrage" style="ellipse;whiteSpace=wrap;html=1;" parent="1" vertex="1">
          <mxGeometry x="380" y="-220" width="120" height="80" as="geometry" />
        </mxCell>
        <mxCell id="PiuN6YdRs1sVkymYL6tR-20" value="Filtre Prix" style="ellipse;whiteSpace=wrap;html=1;" parent="1" vertex="1">
          <mxGeometry x="250" y="-220" width="120" height="80" as="geometry" />
        </mxCell>
        <mxCell id="PiuN6YdRs1sVkymYL6tR-46" style="edgeStyle=orthogonalEdgeStyle;rounded=0;orthogonalLoop=1;jettySize=auto;html=1;" parent="1" source="PiuN6YdRs1sVkymYL6tR-21" target="PiuN6YdRs1sVkymYL6tR-45" edge="1">
          <mxGeometry relative="1" as="geometry" />
        </mxCell>
        <mxCell id="PiuN6YdRs1sVkymYL6tR-21" value="Découverte des voitures d&#39;occasion en ventes&lt;br&gt;&lt;br&gt;&lt;br&gt;Filtres" style="shape=lineEllipse;perimeter=ellipsePerimeter;whiteSpace=wrap;html=1;backgroundOutline=1;" parent="1" vertex="1">
          <mxGeometry x="460" y="-80" width="280" height="140" as="geometry" />
        </mxCell>
        <mxCell id="PiuN6YdRs1sVkymYL6tR-22" value="&amp;lt;&amp;lt;extend&amp;gt;&amp;gt;" style="edgeStyle=none;html=1;startArrow=open;endArrow=none;startSize=12;verticalAlign=bottom;dashed=1;labelBackgroundColor=none;rounded=0;" parent="1" source="PiuN6YdRs1sVkymYL6tR-18" target="PiuN6YdRs1sVkymYL6tR-20" edge="1">
          <mxGeometry width="160" relative="1" as="geometry">
            <mxPoint x="540" y="-50.5" as="sourcePoint" />
            <mxPoint x="700" y="-50.5" as="targetPoint" />
          </mxGeometry>
        </mxCell>
        <mxCell id="PiuN6YdRs1sVkymYL6tR-23" value="&amp;lt;&amp;lt;extend&amp;gt;&amp;gt;" style="edgeStyle=none;html=1;startArrow=open;endArrow=none;startSize=12;verticalAlign=bottom;dashed=1;labelBackgroundColor=none;rounded=0;" parent="1" source="PiuN6YdRs1sVkymYL6tR-18" target="PiuN6YdRs1sVkymYL6tR-17" edge="1">
          <mxGeometry width="160" relative="1" as="geometry">
            <mxPoint x="470" y="-140.5" as="sourcePoint" />
            <mxPoint x="630" y="-140.5" as="targetPoint" />
          </mxGeometry>
        </mxCell>
        <mxCell id="PiuN6YdRs1sVkymYL6tR-24" value="&amp;lt;&amp;lt;extend&amp;gt;&amp;gt;" style="edgeStyle=none;html=1;startArrow=open;endArrow=none;startSize=12;verticalAlign=bottom;dashed=1;labelBackgroundColor=none;rounded=0;" parent="1" source="PiuN6YdRs1sVkymYL6tR-18" target="PiuN6YdRs1sVkymYL6tR-19" edge="1">
          <mxGeometry x="-0.3545" y="-37" width="160" relative="1" as="geometry">
            <mxPoint x="480" y="70" as="sourcePoint" />
            <mxPoint x="640" y="70" as="targetPoint" />
            <mxPoint as="offset" />
          </mxGeometry>
        </mxCell>
        <mxCell id="PiuN6YdRs1sVkymYL6tR-25" value="&amp;lt;&amp;lt;extend&amp;gt;&amp;gt;" style="edgeStyle=none;html=1;startArrow=open;endArrow=none;startSize=12;verticalAlign=bottom;dashed=1;labelBackgroundColor=none;rounded=0;" parent="1" source="PiuN6YdRs1sVkymYL6tR-21" target="PiuN6YdRs1sVkymYL6tR-18" edge="1">
          <mxGeometry width="160" relative="1" as="geometry">
            <mxPoint x="345" y="-50.5" as="sourcePoint" />
            <mxPoint x="505" y="-50.5" as="targetPoint" />
          </mxGeometry>
        </mxCell>
        <mxCell id="PiuN6YdRs1sVkymYL6tR-31" value="Email" style="ellipse;whiteSpace=wrap;html=1;" parent="1" vertex="1">
          <mxGeometry x="1660" y="-180" width="120" height="80" as="geometry" />
        </mxCell>
        <mxCell id="PiuN6YdRs1sVkymYL6tR-32" value="Tel" style="ellipse;whiteSpace=wrap;html=1;" parent="1" vertex="1">
          <mxGeometry x="1530" y="-180" width="120" height="80" as="geometry" />
        </mxCell>
        <mxCell id="PiuN6YdRs1sVkymYL6tR-33" value="Nom" style="ellipse;whiteSpace=wrap;html=1;" parent="1" vertex="1">
          <mxGeometry x="1270" y="-180" width="120" height="80" as="geometry" />
        </mxCell>
        <mxCell id="PiuN6YdRs1sVkymYL6tR-34" value="Prénom" style="ellipse;whiteSpace=wrap;html=1;" parent="1" vertex="1">
          <mxGeometry x="1400" y="-180" width="120" height="80" as="geometry" />
        </mxCell>
        <mxCell id="PiuN6YdRs1sVkymYL6tR-35" value="Information de&amp;nbsp;&lt;br&gt;contact" style="ellipse;whiteSpace=wrap;html=1;" parent="1" vertex="1">
          <mxGeometry x="1400" y="60" width="160" height="100" as="geometry" />
        </mxCell>
        <mxCell id="PiuN6YdRs1sVkymYL6tR-36" value="&amp;lt;&amp;lt;include&amp;gt;&amp;gt;" style="html=1;verticalAlign=bottom;labelBackgroundColor=none;endArrow=open;endFill=0;dashed=1;rounded=0;" parent="1" source="PiuN6YdRs1sVkymYL6tR-35" target="PiuN6YdRs1sVkymYL6tR-11" edge="1">
          <mxGeometry width="160" relative="1" as="geometry">
            <mxPoint x="1070" y="190" as="sourcePoint" />
            <mxPoint x="1230" y="190" as="targetPoint" />
          </mxGeometry>
        </mxCell>
        <mxCell id="PiuN6YdRs1sVkymYL6tR-37" value="&amp;lt;&amp;lt;include&amp;gt;&amp;gt;" style="html=1;verticalAlign=bottom;labelBackgroundColor=none;endArrow=open;endFill=0;dashed=1;rounded=0;" parent="1" source="PiuN6YdRs1sVkymYL6tR-33" target="PiuN6YdRs1sVkymYL6tR-35" edge="1">
          <mxGeometry width="160" relative="1" as="geometry">
            <mxPoint x="1070" y="190" as="sourcePoint" />
            <mxPoint x="1230" y="190" as="targetPoint" />
          </mxGeometry>
        </mxCell>
        <mxCell id="PiuN6YdRs1sVkymYL6tR-38" value="&amp;lt;&amp;lt;include&amp;gt;&amp;gt;" style="html=1;verticalAlign=bottom;labelBackgroundColor=none;endArrow=open;endFill=0;dashed=1;rounded=0;" parent="1" source="PiuN6YdRs1sVkymYL6tR-34" target="PiuN6YdRs1sVkymYL6tR-35" edge="1">
          <mxGeometry width="160" relative="1" as="geometry">
            <mxPoint x="1090" y="120" as="sourcePoint" />
            <mxPoint x="1250" y="120" as="targetPoint" />
          </mxGeometry>
        </mxCell>
        <mxCell id="PiuN6YdRs1sVkymYL6tR-39" value="&amp;lt;&amp;lt;include&amp;gt;&amp;gt;" style="html=1;verticalAlign=bottom;labelBackgroundColor=none;endArrow=open;endFill=0;dashed=1;rounded=0;" parent="1" source="PiuN6YdRs1sVkymYL6tR-32" target="PiuN6YdRs1sVkymYL6tR-35" edge="1">
          <mxGeometry width="160" relative="1" as="geometry">
            <mxPoint x="1160" y="70" as="sourcePoint" />
            <mxPoint x="1320" y="70" as="targetPoint" />
            <mxPoint as="offset" />
          </mxGeometry>
        </mxCell>
        <mxCell id="PiuN6YdRs1sVkymYL6tR-40" value="&amp;lt;&amp;lt;include&amp;gt;&amp;gt;" style="html=1;verticalAlign=bottom;labelBackgroundColor=none;endArrow=open;endFill=0;dashed=1;rounded=0;" parent="1" source="PiuN6YdRs1sVkymYL6tR-31" target="PiuN6YdRs1sVkymYL6tR-35" edge="1">
          <mxGeometry width="160" relative="1" as="geometry">
            <mxPoint x="1070" y="190" as="sourcePoint" />
            <mxPoint x="1230" y="190" as="targetPoint" />
          </mxGeometry>
        </mxCell>
        <mxCell id="PiuN6YdRs1sVkymYL6tR-41" value="Message" style="ellipse;whiteSpace=wrap;html=1;" parent="1" vertex="1">
          <mxGeometry x="1790" y="-180" width="120" height="80" as="geometry" />
        </mxCell>
        <mxCell id="PiuN6YdRs1sVkymYL6tR-42" value="&amp;lt;&amp;lt;include&amp;gt;&amp;gt;" style="html=1;verticalAlign=bottom;labelBackgroundColor=none;endArrow=open;endFill=0;dashed=1;rounded=0;exitX=0.434;exitY=1.056;exitDx=0;exitDy=0;exitPerimeter=0;" parent="1" source="PiuN6YdRs1sVkymYL6tR-41" target="PiuN6YdRs1sVkymYL6tR-35" edge="1">
          <mxGeometry x="0.0009" width="160" relative="1" as="geometry">
            <mxPoint x="1070" y="190" as="sourcePoint" />
            <mxPoint x="1230" y="190" as="targetPoint" />
            <Array as="points" />
            <mxPoint as="offset" />
          </mxGeometry>
        </mxCell>
        <mxCell id="PiuN6YdRs1sVkymYL6tR-47" style="edgeStyle=orthogonalEdgeStyle;rounded=0;orthogonalLoop=1;jettySize=auto;html=1;" parent="1" source="PiuN6YdRs1sVkymYL6tR-45" target="PiuN6YdRs1sVkymYL6tR-11" edge="1">
          <mxGeometry relative="1" as="geometry" />
        </mxCell>
        <mxCell id="PiuN6YdRs1sVkymYL6tR-45" value="Affiche une voiture sélectionné" style="ellipse;whiteSpace=wrap;html=1;" parent="1" vertex="1">
          <mxGeometry x="830" y="-65" width="150" height="110" as="geometry" />
        </mxCell>
        <mxCell id="PiuN6YdRs1sVkymYL6tR-48" value="&amp;lt;&amp;lt;include&amp;gt;&amp;gt;" style="html=1;verticalAlign=bottom;labelBackgroundColor=none;endArrow=open;endFill=0;dashed=1;rounded=0;" parent="1" source="PiuN6YdRs1sVkymYL6tR-35" target="PiuN6YdRs1sVkymYL6tR-10" edge="1">
          <mxGeometry y="10" width="160" relative="1" as="geometry">
            <mxPoint x="1010" y="470" as="sourcePoint" />
            <mxPoint x="1170" y="470" as="targetPoint" />
            <mxPoint as="offset" />
          </mxGeometry>
        </mxCell>
        <mxCell id="PiuN6YdRs1sVkymYL6tR-49" value="&amp;lt;&amp;lt;include&amp;gt;&amp;gt;" style="html=1;verticalAlign=bottom;labelBackgroundColor=none;endArrow=open;endFill=0;dashed=1;rounded=0;" parent="1" source="PiuN6YdRs1sVkymYL6tR-35" target="PiuN6YdRs1sVkymYL6tR-12" edge="1">
          <mxGeometry width="160" relative="1" as="geometry">
            <mxPoint x="1010" y="470" as="sourcePoint" />
            <mxPoint x="1170" y="470" as="targetPoint" />
          </mxGeometry>
        </mxCell>
        <mxCell id="PiuN6YdRs1sVkymYL6tR-53" value="Sujet message" style="ellipse;whiteSpace=wrap;html=1;" parent="1" vertex="1">
          <mxGeometry x="1220" y="250" width="120" height="80" as="geometry" />
        </mxCell>
        <mxCell id="PiuN6YdRs1sVkymYL6tR-54" value="Note" style="ellipse;whiteSpace=wrap;html=1;" parent="1" vertex="1">
          <mxGeometry x="1560" y="230" width="120" height="80" as="geometry" />
        </mxCell>
        <mxCell id="PiuN6YdRs1sVkymYL6tR-55" value="&amp;lt;&amp;lt;include&amp;gt;&amp;gt;" style="html=1;verticalAlign=bottom;labelBackgroundColor=none;endArrow=open;endFill=0;dashed=1;rounded=0;" parent="1" source="PiuN6YdRs1sVkymYL6tR-53" target="PiuN6YdRs1sVkymYL6tR-12" edge="1">
          <mxGeometry width="160" relative="1" as="geometry">
            <mxPoint x="1230" y="380" as="sourcePoint" />
            <mxPoint x="1390" y="380" as="targetPoint" />
          </mxGeometry>
        </mxCell>
        <mxCell id="PiuN6YdRs1sVkymYL6tR-56" value="&amp;lt;&amp;lt;include&amp;gt;&amp;gt;" style="html=1;verticalAlign=bottom;labelBackgroundColor=none;endArrow=open;endFill=0;dashed=1;rounded=0;" parent="1" source="PiuN6YdRs1sVkymYL6tR-54" target="PiuN6YdRs1sVkymYL6tR-10" edge="1">
          <mxGeometry width="160" relative="1" as="geometry">
            <mxPoint x="1230" y="380" as="sourcePoint" />
            <mxPoint x="1390" y="380" as="targetPoint" />
          </mxGeometry>
        </mxCell>
        <mxCell id="PiuN6YdRs1sVkymYL6tR-59" value="&lt;font style=&quot;font-size: 20px;&quot;&gt;Gérer les voitures&lt;br&gt;&lt;br&gt;&lt;br&gt;&lt;br&gt;Ajouter voitures&lt;br&gt;Modifer Voitures&lt;br&gt;Supprimer voitures&lt;/font&gt;" style="shape=lineEllipse;perimeter=ellipsePerimeter;whiteSpace=wrap;html=1;backgroundOutline=1;" parent="1" vertex="1">
          <mxGeometry x="1330" y="1300" width="395" height="220" as="geometry" />
        </mxCell>
        <mxCell id="PiuN6YdRs1sVkymYL6tR-60" value="Mise en circulation" style="ellipse;whiteSpace=wrap;html=1;" parent="1" vertex="1">
          <mxGeometry x="2615" y="670" width="120" height="80" as="geometry" />
        </mxCell>
        <mxCell id="PiuN6YdRs1sVkymYL6tR-61" value="Année" style="ellipse;whiteSpace=wrap;html=1;" parent="1" vertex="1">
          <mxGeometry x="2485" y="620" width="120" height="80" as="geometry" />
        </mxCell>
        <mxCell id="PiuN6YdRs1sVkymYL6tR-62" value="Marque" style="ellipse;whiteSpace=wrap;html=1;" parent="1" vertex="1">
          <mxGeometry x="2385" y="560" width="120" height="80" as="geometry" />
        </mxCell>
        <mxCell id="PiuN6YdRs1sVkymYL6tR-63" value="Modèle" style="ellipse;whiteSpace=wrap;html=1;" parent="1" vertex="1">
          <mxGeometry x="2255" y="600" width="120" height="80" as="geometry" />
        </mxCell>
        <mxCell id="PiuN6YdRs1sVkymYL6tR-64" value="Liste des éléments&amp;nbsp;&lt;br&gt;du carnet d&#39;entretien" style="ellipse;whiteSpace=wrap;html=1;" parent="1" vertex="1">
          <mxGeometry x="2685" y="1825" width="120" height="80" as="geometry" />
        </mxCell>
        <mxCell id="PiuN6YdRs1sVkymYL6tR-65" value="Première main" style="ellipse;whiteSpace=wrap;html=1;" parent="1" vertex="1">
          <mxGeometry x="2455" y="1830" width="120" height="70" as="geometry" />
        </mxCell>
        <mxCell id="PiuN6YdRs1sVkymYL6tR-66" value="Contrôle technique" style="ellipse;whiteSpace=wrap;html=1;" parent="1" vertex="1">
          <mxGeometry x="2285" y="1800" width="120" height="80" as="geometry" />
        </mxCell>
        <mxCell id="PiuN6YdRs1sVkymYL6tR-67" value="longeur" style="ellipse;whiteSpace=wrap;html=1;" parent="1" vertex="1">
          <mxGeometry x="3250" y="802.5" width="120" height="80" as="geometry" />
        </mxCell>
        <mxCell id="PiuN6YdRs1sVkymYL6tR-72" value="Normes EURO" style="ellipse;whiteSpace=wrap;html=1;" parent="1" vertex="1">
          <mxGeometry x="3225" y="1765" width="120" height="80" as="geometry" />
        </mxCell>
        <mxCell id="PiuN6YdRs1sVkymYL6tR-74" value="Volume coffre" style="ellipse;whiteSpace=wrap;html=1;" parent="1" vertex="1">
          <mxGeometry x="3205" y="620" width="120" height="80" as="geometry" />
        </mxCell>
        <mxCell id="PiuN6YdRs1sVkymYL6tR-75" value="NB places" style="ellipse;whiteSpace=wrap;html=1;" parent="1" vertex="1">
          <mxGeometry x="2855" y="640" width="120" height="80" as="geometry" />
        </mxCell>
        <mxCell id="PiuN6YdRs1sVkymYL6tR-76" value="Sllerie" style="ellipse;whiteSpace=wrap;html=1;" parent="1" vertex="1">
          <mxGeometry x="2725" y="830" width="120" height="80" as="geometry" />
        </mxCell>
        <mxCell id="PiuN6YdRs1sVkymYL6tR-77" value="NB portes" style="ellipse;whiteSpace=wrap;html=1;" parent="1" vertex="1">
          <mxGeometry x="2765" y="730" width="120" height="80" as="geometry" />
        </mxCell>
        <mxCell id="PiuN6YdRs1sVkymYL6tR-78" value="Chevaux fiscaux" style="ellipse;whiteSpace=wrap;html=1;" parent="1" vertex="1">
          <mxGeometry x="3235" y="720" width="120" height="80" as="geometry" />
        </mxCell>
        <mxCell id="PiuN6YdRs1sVkymYL6tR-79" value="Prix" style="ellipse;whiteSpace=wrap;html=1;" parent="1" vertex="1">
          <mxGeometry x="2145" y="750" width="120" height="80" as="geometry" />
        </mxCell>
        <mxCell id="PiuN6YdRs1sVkymYL6tR-80" value="Kilométarge" style="ellipse;whiteSpace=wrap;html=1;" parent="1" vertex="1">
          <mxGeometry x="2175" y="670" width="120" height="80" as="geometry" />
        </mxCell>
        <mxCell id="PiuN6YdRs1sVkymYL6tR-81" value="Informations &lt;br&gt;Générales" style="ellipse;whiteSpace=wrap;html=1;" parent="1" vertex="1">
          <mxGeometry x="2445" y="1010" width="120" height="80" as="geometry" />
        </mxCell>
        <mxCell id="PiuN6YdRs1sVkymYL6tR-82" value="Boite de vitesse" style="ellipse;whiteSpace=wrap;html=1;" parent="1" vertex="1">
          <mxGeometry x="3165" y="880" width="120" height="80" as="geometry" />
        </mxCell>
        <mxCell id="PiuN6YdRs1sVkymYL6tR-83" value="Crit&#39;AIR" style="ellipse;whiteSpace=wrap;html=1;" parent="1" vertex="1">
          <mxGeometry x="3115" y="1825" width="120" height="80" as="geometry" />
        </mxCell>
        <mxCell id="PiuN6YdRs1sVkymYL6tR-84" value="Performances et normes" style="ellipse;whiteSpace=wrap;html=1;" parent="1" vertex="1">
          <mxGeometry x="3035" y="1555" width="120" height="80" as="geometry" />
        </mxCell>
        <mxCell id="PiuN6YdRs1sVkymYL6tR-85" value="Consommation" style="ellipse;whiteSpace=wrap;html=1;" parent="1" vertex="1">
          <mxGeometry x="2985" y="1825" width="120" height="80" as="geometry" />
        </mxCell>
        <mxCell id="PiuN6YdRs1sVkymYL6tR-86" value="Couleur" style="ellipse;whiteSpace=wrap;html=1;" parent="1" vertex="1">
          <mxGeometry x="2955" y="590" width="120" height="80" as="geometry" />
        </mxCell>
        <mxCell id="PiuN6YdRs1sVkymYL6tR-87" value="Contrôle et &lt;br&gt;historique" style="ellipse;whiteSpace=wrap;html=1;" parent="1" vertex="1">
          <mxGeometry x="2475" y="1520" width="120" height="80" as="geometry" />
        </mxCell>
        <mxCell id="PiuN6YdRs1sVkymYL6tR-88" value="Energie" style="ellipse;whiteSpace=wrap;html=1;" parent="1" vertex="1">
          <mxGeometry x="3175" y="530" width="120" height="80" as="geometry" />
        </mxCell>
        <mxCell id="PiuN6YdRs1sVkymYL6tR-89" value="Puissance véhicule" style="ellipse;whiteSpace=wrap;html=1;" parent="1" vertex="1">
          <mxGeometry x="3065" y="510" width="120" height="80" as="geometry" />
        </mxCell>
        <mxCell id="PiuN6YdRs1sVkymYL6tR-91" value="Emission CO2" style="ellipse;whiteSpace=wrap;html=1;" parent="1" vertex="1">
          <mxGeometry x="3285" y="1655" width="120" height="80" as="geometry" />
        </mxCell>
        <mxCell id="PiuN6YdRs1sVkymYL6tR-93" value="Caractériostiques&amp;nbsp;&lt;br&gt;Techniques" style="ellipse;whiteSpace=wrap;html=1;" parent="1" vertex="1">
          <mxGeometry x="2885" y="1010" width="120" height="80" as="geometry" />
        </mxCell>
        <mxCell id="PiuN6YdRs1sVkymYL6tR-95" value="&amp;lt;&amp;lt;extend&amp;gt;&amp;gt;" style="html=1;verticalAlign=bottom;labelBackgroundColor=none;endArrow=open;endFill=0;dashed=1;rounded=0;" parent="1" source="PiuN6YdRs1sVkymYL6tR-67" target="PiuN6YdRs1sVkymYL6tR-93" edge="1">
          <mxGeometry width="160" relative="1" as="geometry">
            <mxPoint x="3375" y="840" as="sourcePoint" />
            <mxPoint x="3535" y="840" as="targetPoint" />
          </mxGeometry>
        </mxCell>
        <mxCell id="PiuN6YdRs1sVkymYL6tR-96" value="&amp;lt;&amp;lt;extend&amp;gt;&amp;gt;" style="html=1;verticalAlign=bottom;labelBackgroundColor=none;endArrow=open;endFill=0;dashed=1;rounded=0;" parent="1" source="PiuN6YdRs1sVkymYL6tR-88" target="PiuN6YdRs1sVkymYL6tR-93" edge="1">
          <mxGeometry x="-0.0615" y="-14" width="160" relative="1" as="geometry">
            <mxPoint x="2885" y="790" as="sourcePoint" />
            <mxPoint x="3045" y="790" as="targetPoint" />
            <mxPoint as="offset" />
          </mxGeometry>
        </mxCell>
        <mxCell id="PiuN6YdRs1sVkymYL6tR-97" value="&amp;lt;&amp;lt;extend&amp;gt;&amp;gt;" style="html=1;verticalAlign=bottom;labelBackgroundColor=none;endArrow=open;endFill=0;dashed=1;rounded=0;" parent="1" source="PiuN6YdRs1sVkymYL6tR-78" target="PiuN6YdRs1sVkymYL6tR-93" edge="1">
          <mxGeometry width="160" relative="1" as="geometry">
            <mxPoint x="2895" y="800" as="sourcePoint" />
            <mxPoint x="3055" y="800" as="targetPoint" />
          </mxGeometry>
        </mxCell>
        <mxCell id="PiuN6YdRs1sVkymYL6tR-98" value="&amp;lt;&amp;lt;extend&amp;gt;&amp;gt;" style="html=1;verticalAlign=bottom;labelBackgroundColor=none;endArrow=open;endFill=0;dashed=1;rounded=0;" parent="1" source="PiuN6YdRs1sVkymYL6tR-89" target="PiuN6YdRs1sVkymYL6tR-93" edge="1">
          <mxGeometry width="160" relative="1" as="geometry">
            <mxPoint x="2905" y="810" as="sourcePoint" />
            <mxPoint x="3065" y="810" as="targetPoint" />
          </mxGeometry>
        </mxCell>
        <mxCell id="PiuN6YdRs1sVkymYL6tR-99" value="&amp;lt;&amp;lt;extend&amp;gt;&amp;gt;" style="html=1;verticalAlign=bottom;labelBackgroundColor=none;endArrow=open;endFill=0;dashed=1;rounded=0;" parent="1" source="PiuN6YdRs1sVkymYL6tR-82" target="PiuN6YdRs1sVkymYL6tR-93" edge="1">
          <mxGeometry x="-0.0008" width="160" relative="1" as="geometry">
            <mxPoint x="2915" y="820" as="sourcePoint" />
            <mxPoint x="3075" y="820" as="targetPoint" />
            <mxPoint as="offset" />
          </mxGeometry>
        </mxCell>
        <mxCell id="PiuN6YdRs1sVkymYL6tR-100" value="&amp;lt;&amp;lt;extend&amp;gt;&amp;gt;" style="html=1;verticalAlign=bottom;labelBackgroundColor=none;endArrow=open;endFill=0;dashed=1;rounded=0;" parent="1" source="PiuN6YdRs1sVkymYL6tR-86" target="PiuN6YdRs1sVkymYL6tR-93" edge="1">
          <mxGeometry width="160" relative="1" as="geometry">
            <mxPoint x="2925" y="830" as="sourcePoint" />
            <mxPoint x="3085" y="830" as="targetPoint" />
          </mxGeometry>
        </mxCell>
        <mxCell id="PiuN6YdRs1sVkymYL6tR-101" value="&amp;lt;&amp;lt;extend&amp;gt;&amp;gt;" style="html=1;verticalAlign=bottom;labelBackgroundColor=none;endArrow=open;endFill=0;dashed=1;rounded=0;" parent="1" source="PiuN6YdRs1sVkymYL6tR-74" target="PiuN6YdRs1sVkymYL6tR-93" edge="1">
          <mxGeometry width="160" relative="1" as="geometry">
            <mxPoint x="2935" y="840" as="sourcePoint" />
            <mxPoint x="3095" y="840" as="targetPoint" />
          </mxGeometry>
        </mxCell>
        <mxCell id="PiuN6YdRs1sVkymYL6tR-102" value="&amp;lt;&amp;lt;extend&amp;gt;&amp;gt;" style="html=1;verticalAlign=bottom;labelBackgroundColor=none;endArrow=open;endFill=0;dashed=1;rounded=0;" parent="1" source="PiuN6YdRs1sVkymYL6tR-75" target="PiuN6YdRs1sVkymYL6tR-93" edge="1">
          <mxGeometry width="160" relative="1" as="geometry">
            <mxPoint x="2945" y="850" as="sourcePoint" />
            <mxPoint x="3105" y="850" as="targetPoint" />
          </mxGeometry>
        </mxCell>
        <mxCell id="PiuN6YdRs1sVkymYL6tR-103" value="&amp;lt;&amp;lt;extend&amp;gt;&amp;gt;" style="html=1;verticalAlign=bottom;labelBackgroundColor=none;endArrow=open;endFill=0;dashed=1;rounded=0;" parent="1" source="PiuN6YdRs1sVkymYL6tR-77" target="PiuN6YdRs1sVkymYL6tR-93" edge="1">
          <mxGeometry x="-0.0832" y="4" width="160" relative="1" as="geometry">
            <mxPoint x="2955" y="860" as="sourcePoint" />
            <mxPoint x="3115" y="860" as="targetPoint" />
            <mxPoint as="offset" />
          </mxGeometry>
        </mxCell>
        <mxCell id="PiuN6YdRs1sVkymYL6tR-104" value="&amp;lt;&amp;lt;extend&amp;gt;&amp;gt;" style="html=1;verticalAlign=bottom;labelBackgroundColor=none;endArrow=open;endFill=0;dashed=1;rounded=0;" parent="1" source="PiuN6YdRs1sVkymYL6tR-76" target="PiuN6YdRs1sVkymYL6tR-93" edge="1">
          <mxGeometry x="-0.005" width="160" relative="1" as="geometry">
            <mxPoint x="2965" y="870" as="sourcePoint" />
            <mxPoint x="3125" y="870" as="targetPoint" />
            <mxPoint as="offset" />
          </mxGeometry>
        </mxCell>
        <mxCell id="PiuN6YdRs1sVkymYL6tR-106" value="&amp;lt;&amp;lt;extend&amp;gt;&amp;gt;" style="html=1;verticalAlign=bottom;labelBackgroundColor=none;endArrow=open;endFill=0;dashed=1;rounded=0;" parent="1" source="PiuN6YdRs1sVkymYL6tR-60" target="PiuN6YdRs1sVkymYL6tR-81" edge="1">
          <mxGeometry width="160" relative="1" as="geometry">
            <mxPoint x="2535" y="940" as="sourcePoint" />
            <mxPoint x="2695" y="940" as="targetPoint" />
          </mxGeometry>
        </mxCell>
        <mxCell id="PiuN6YdRs1sVkymYL6tR-107" value="&amp;lt;&amp;lt;extend&amp;gt;&amp;gt;" style="html=1;verticalAlign=bottom;labelBackgroundColor=none;endArrow=open;endFill=0;dashed=1;rounded=0;" parent="1" source="PiuN6YdRs1sVkymYL6tR-63" target="PiuN6YdRs1sVkymYL6tR-81" edge="1">
          <mxGeometry width="160" relative="1" as="geometry">
            <mxPoint x="2295" y="670" as="sourcePoint" />
            <mxPoint x="2455" y="670" as="targetPoint" />
          </mxGeometry>
        </mxCell>
        <mxCell id="PiuN6YdRs1sVkymYL6tR-108" value="&amp;lt;&amp;lt;extend&amp;gt;&amp;gt;" style="html=1;verticalAlign=bottom;labelBackgroundColor=none;endArrow=open;endFill=0;dashed=1;rounded=0;entryX=0.5;entryY=0;entryDx=0;entryDy=0;" parent="1" source="PiuN6YdRs1sVkymYL6tR-62" target="PiuN6YdRs1sVkymYL6tR-81" edge="1">
          <mxGeometry width="160" relative="1" as="geometry">
            <mxPoint x="2555" y="960" as="sourcePoint" />
            <mxPoint x="2715" y="960" as="targetPoint" />
          </mxGeometry>
        </mxCell>
        <mxCell id="PiuN6YdRs1sVkymYL6tR-109" value="&amp;lt;&amp;lt;extend&amp;gt;&amp;gt;" style="html=1;verticalAlign=bottom;labelBackgroundColor=none;endArrow=open;endFill=0;dashed=1;rounded=0;" parent="1" source="PiuN6YdRs1sVkymYL6tR-61" target="PiuN6YdRs1sVkymYL6tR-81" edge="1">
          <mxGeometry x="0.0006" width="160" relative="1" as="geometry">
            <mxPoint x="2565" y="970" as="sourcePoint" />
            <mxPoint x="2725" y="970" as="targetPoint" />
            <mxPoint as="offset" />
          </mxGeometry>
        </mxCell>
        <mxCell id="PiuN6YdRs1sVkymYL6tR-110" value="&amp;lt;&amp;lt;extend&amp;gt;&amp;gt;" style="html=1;verticalAlign=bottom;labelBackgroundColor=none;endArrow=open;endFill=0;dashed=1;rounded=0;" parent="1" source="PiuN6YdRs1sVkymYL6tR-79" target="PiuN6YdRs1sVkymYL6tR-81" edge="1">
          <mxGeometry width="160" relative="1" as="geometry">
            <mxPoint x="2575" y="980" as="sourcePoint" />
            <mxPoint x="2735" y="980" as="targetPoint" />
          </mxGeometry>
        </mxCell>
        <mxCell id="PiuN6YdRs1sVkymYL6tR-111" value="&amp;lt;&amp;lt;extend&amp;gt;&amp;gt;" style="html=1;verticalAlign=bottom;labelBackgroundColor=none;endArrow=open;endFill=0;dashed=1;rounded=0;" parent="1" source="PiuN6YdRs1sVkymYL6tR-80" target="PiuN6YdRs1sVkymYL6tR-81" edge="1">
          <mxGeometry x="0.0003" width="160" relative="1" as="geometry">
            <mxPoint x="2585" y="990" as="sourcePoint" />
            <mxPoint x="2745" y="990" as="targetPoint" />
            <mxPoint as="offset" />
          </mxGeometry>
        </mxCell>
        <mxCell id="PiuN6YdRs1sVkymYL6tR-112" value="&amp;lt;&amp;lt;extend&amp;gt;&amp;gt;" style="html=1;verticalAlign=bottom;labelBackgroundColor=none;endArrow=open;endFill=0;dashed=1;rounded=0;" parent="1" source="PiuN6YdRs1sVkymYL6tR-85" target="PiuN6YdRs1sVkymYL6tR-84" edge="1">
          <mxGeometry width="160" relative="1" as="geometry">
            <mxPoint x="2555" y="860" as="sourcePoint" />
            <mxPoint x="2715" y="860" as="targetPoint" />
          </mxGeometry>
        </mxCell>
        <mxCell id="PiuN6YdRs1sVkymYL6tR-113" value="&amp;lt;&amp;lt;extend&amp;gt;&amp;gt;" style="html=1;verticalAlign=bottom;labelBackgroundColor=none;endArrow=open;endFill=0;dashed=1;rounded=0;" parent="1" source="PiuN6YdRs1sVkymYL6tR-83" target="PiuN6YdRs1sVkymYL6tR-84" edge="1">
          <mxGeometry width="160" relative="1" as="geometry">
            <mxPoint x="2565" y="870" as="sourcePoint" />
            <mxPoint x="2725" y="870" as="targetPoint" />
          </mxGeometry>
        </mxCell>
        <mxCell id="PiuN6YdRs1sVkymYL6tR-114" value="&amp;lt;&amp;lt;extend&amp;gt;&amp;gt;" style="html=1;verticalAlign=bottom;labelBackgroundColor=none;endArrow=open;endFill=0;dashed=1;rounded=0;" parent="1" source="PiuN6YdRs1sVkymYL6tR-72" target="PiuN6YdRs1sVkymYL6tR-84" edge="1">
          <mxGeometry x="-0.0041" width="160" relative="1" as="geometry">
            <mxPoint x="2575" y="880" as="sourcePoint" />
            <mxPoint x="2735" y="880" as="targetPoint" />
            <mxPoint as="offset" />
          </mxGeometry>
        </mxCell>
        <mxCell id="PiuN6YdRs1sVkymYL6tR-115" value="&amp;lt;&amp;lt;extend&amp;gt;&amp;gt;" style="html=1;verticalAlign=bottom;labelBackgroundColor=none;endArrow=open;endFill=0;dashed=1;rounded=0;" parent="1" source="PiuN6YdRs1sVkymYL6tR-91" target="PiuN6YdRs1sVkymYL6tR-84" edge="1">
          <mxGeometry x="-0.0026" width="160" relative="1" as="geometry">
            <mxPoint x="2585" y="890" as="sourcePoint" />
            <mxPoint x="2745" y="890" as="targetPoint" />
            <mxPoint as="offset" />
          </mxGeometry>
        </mxCell>
        <mxCell id="LGg4eHonx4aCfMcOr95j-2" value="&amp;lt;&amp;lt;extend&amp;gt;&amp;gt;" style="html=1;verticalAlign=bottom;labelBackgroundColor=none;endArrow=open;endFill=0;dashed=1;rounded=0;" parent="1" source="PiuN6YdRs1sVkymYL6tR-64" target="PiuN6YdRs1sVkymYL6tR-87" edge="1">
          <mxGeometry x="0.6153" y="-21" width="160" relative="1" as="geometry">
            <mxPoint x="1875" y="1410" as="sourcePoint" />
            <mxPoint x="2035" y="1410" as="targetPoint" />
            <mxPoint as="offset" />
          </mxGeometry>
        </mxCell>
        <mxCell id="LGg4eHonx4aCfMcOr95j-3" value="&amp;lt;&amp;lt;extend&amp;gt;&amp;gt;" style="html=1;verticalAlign=bottom;labelBackgroundColor=none;endArrow=open;endFill=0;dashed=1;rounded=0;" parent="1" source="PiuN6YdRs1sVkymYL6tR-65" target="PiuN6YdRs1sVkymYL6tR-87" edge="1">
          <mxGeometry x="0.1672" y="-23" width="160" relative="1" as="geometry">
            <mxPoint x="1850" y="1270" as="sourcePoint" />
            <mxPoint x="2435" y="1570" as="targetPoint" />
            <mxPoint x="-1" as="offset" />
          </mxGeometry>
        </mxCell>
        <mxCell id="LGg4eHonx4aCfMcOr95j-4" value="&amp;lt;&amp;lt;extend&amp;gt;&amp;gt;" style="html=1;verticalAlign=bottom;labelBackgroundColor=none;endArrow=open;endFill=0;dashed=1;rounded=0;" parent="1" source="PiuN6YdRs1sVkymYL6tR-66" target="PiuN6YdRs1sVkymYL6tR-87" edge="1">
          <mxGeometry x="0.0099" width="160" relative="1" as="geometry">
            <mxPoint x="1595" y="1120" as="sourcePoint" />
            <mxPoint x="1755" y="1120" as="targetPoint" />
            <mxPoint as="offset" />
          </mxGeometry>
        </mxCell>
        <mxCell id="LGg4eHonx4aCfMcOr95j-5" value="Inspections périodiques" style="ellipse;whiteSpace=wrap;html=1;" parent="1" vertex="1">
          <mxGeometry x="2845" y="1960" width="120" height="80" as="geometry" />
        </mxCell>
        <mxCell id="LGg4eHonx4aCfMcOr95j-6" value="Remarsues et&amp;nbsp;&lt;br&gt;observation" style="ellipse;whiteSpace=wrap;html=1;" parent="1" vertex="1">
          <mxGeometry x="2425" y="1940" width="120" height="80" as="geometry" />
        </mxCell>
        <mxCell id="LGg4eHonx4aCfMcOr95j-7" value="Interventions recommandées par&lt;br&gt;le constructeur" style="ellipse;whiteSpace=wrap;html=1;" parent="1" vertex="1">
          <mxGeometry x="2495" y="2030" width="120" height="80" as="geometry" />
        </mxCell>
        <mxCell id="LGg4eHonx4aCfMcOr95j-8" value="Maintenance spécifiques au véhiocule" style="ellipse;whiteSpace=wrap;html=1;" parent="1" vertex="1">
          <mxGeometry x="2615" y="2060" width="120" height="80" as="geometry" />
        </mxCell>
        <mxCell id="LGg4eHonx4aCfMcOr95j-9" value="Réparations et remplacmeents" style="ellipse;whiteSpace=wrap;html=1;" parent="1" vertex="1">
          <mxGeometry x="2775" y="2060" width="120" height="80" as="geometry" />
        </mxCell>
        <mxCell id="LGg4eHonx4aCfMcOr95j-10" value="Entretien régulier" style="ellipse;whiteSpace=wrap;html=1;" parent="1" vertex="1">
          <mxGeometry x="2845" y="1870" width="120" height="80" as="geometry" />
        </mxCell>
        <mxCell id="LGg4eHonx4aCfMcOr95j-11" value="&amp;lt;&amp;lt;include&amp;gt;&amp;gt;" style="html=1;verticalAlign=bottom;labelBackgroundColor=none;endArrow=open;endFill=0;dashed=1;rounded=0;" parent="1" source="LGg4eHonx4aCfMcOr95j-5" target="PiuN6YdRs1sVkymYL6tR-64" edge="1">
          <mxGeometry x="0.0075" y="-16" width="160" relative="1" as="geometry">
            <mxPoint x="2715" y="1990" as="sourcePoint" />
            <mxPoint x="2875" y="1990" as="targetPoint" />
            <mxPoint as="offset" />
          </mxGeometry>
        </mxCell>
        <mxCell id="LGg4eHonx4aCfMcOr95j-12" value="&amp;lt;&amp;lt;extend&amp;gt;&amp;gt;" style="html=1;verticalAlign=bottom;labelBackgroundColor=none;endArrow=open;endFill=0;dashed=1;rounded=0;" parent="1" source="LGg4eHonx4aCfMcOr95j-10" target="PiuN6YdRs1sVkymYL6tR-64" edge="1">
          <mxGeometry width="160" relative="1" as="geometry">
            <mxPoint x="2715" y="1990" as="sourcePoint" />
            <mxPoint x="2875" y="1990" as="targetPoint" />
          </mxGeometry>
        </mxCell>
        <mxCell id="LGg4eHonx4aCfMcOr95j-13" value="&amp;lt;&amp;lt;extend&amp;gt;&amp;gt;" style="html=1;verticalAlign=bottom;labelBackgroundColor=none;endArrow=open;endFill=0;dashed=1;rounded=0;" parent="1" source="LGg4eHonx4aCfMcOr95j-9" target="PiuN6YdRs1sVkymYL6tR-64" edge="1">
          <mxGeometry x="-0.4729" y="-14" width="160" relative="1" as="geometry">
            <mxPoint x="2715" y="1990" as="sourcePoint" />
            <mxPoint x="2875" y="1990" as="targetPoint" />
            <mxPoint as="offset" />
          </mxGeometry>
        </mxCell>
        <mxCell id="LGg4eHonx4aCfMcOr95j-14" value="&amp;lt;&amp;lt;extend&amp;gt;&amp;gt;" style="html=1;verticalAlign=bottom;labelBackgroundColor=none;endArrow=open;endFill=0;dashed=1;rounded=0;" parent="1" source="LGg4eHonx4aCfMcOr95j-8" target="PiuN6YdRs1sVkymYL6tR-64" edge="1">
          <mxGeometry x="-0.7135" y="-30" width="160" relative="1" as="geometry">
            <mxPoint x="2715" y="1990" as="sourcePoint" />
            <mxPoint x="2875" y="1990" as="targetPoint" />
            <mxPoint as="offset" />
          </mxGeometry>
        </mxCell>
        <mxCell id="LGg4eHonx4aCfMcOr95j-15" value="&amp;lt;&amp;lt;extend&amp;gt;&amp;gt;" style="html=1;verticalAlign=bottom;labelBackgroundColor=none;endArrow=open;endFill=0;dashed=1;rounded=0;" parent="1" source="LGg4eHonx4aCfMcOr95j-7" target="PiuN6YdRs1sVkymYL6tR-64" edge="1">
          <mxGeometry x="-0.5325" y="14" width="160" relative="1" as="geometry">
            <mxPoint x="2715" y="1990" as="sourcePoint" />
            <mxPoint x="2875" y="1990" as="targetPoint" />
            <mxPoint as="offset" />
          </mxGeometry>
        </mxCell>
        <mxCell id="LGg4eHonx4aCfMcOr95j-16" value="&amp;lt;&amp;lt;extend&amp;gt;&amp;gt;" style="html=1;verticalAlign=bottom;labelBackgroundColor=none;endArrow=open;endFill=0;dashed=1;rounded=0;" parent="1" source="LGg4eHonx4aCfMcOr95j-6" target="PiuN6YdRs1sVkymYL6tR-64" edge="1">
          <mxGeometry width="160" relative="1" as="geometry">
            <mxPoint x="2715" y="1990" as="sourcePoint" />
            <mxPoint x="2875" y="1990" as="targetPoint" />
          </mxGeometry>
        </mxCell>
        <mxCell id="LGg4eHonx4aCfMcOr95j-44" value="Options et&amp;nbsp;&lt;br&gt;équipements" style="ellipse;whiteSpace=wrap;html=1;" parent="1" vertex="1">
          <mxGeometry x="3200" y="1280" width="120" height="80" as="geometry" />
        </mxCell>
        <mxCell id="LGg4eHonx4aCfMcOr95j-45" value="Options standard" style="ellipse;whiteSpace=wrap;html=1;" parent="1" vertex="1">
          <mxGeometry x="3675" y="1470" width="120" height="80" as="geometry" />
        </mxCell>
        <mxCell id="LGg4eHonx4aCfMcOr95j-46" value="Technologies Embarquées" style="ellipse;whiteSpace=wrap;html=1;" parent="1" vertex="1">
          <mxGeometry x="3755" y="1210" width="120" height="80" as="geometry" />
        </mxCell>
        <mxCell id="LGg4eHonx4aCfMcOr95j-47" value="Options&amp;nbsp;&lt;br&gt;personnalisées" style="ellipse;whiteSpace=wrap;html=1;" parent="1" vertex="1">
          <mxGeometry x="3740" y="1070" width="120" height="80" as="geometry" />
        </mxCell>
        <mxCell id="LGg4eHonx4aCfMcOr95j-48" value="Equipements supplémentaire" style="ellipse;whiteSpace=wrap;html=1;" parent="1" vertex="1">
          <mxGeometry x="3455" y="990" width="120" height="80" as="geometry" />
        </mxCell>
        <mxCell id="LGg4eHonx4aCfMcOr95j-49" value="ABS" style="ellipse;whiteSpace=wrap;html=1;" parent="1" vertex="1">
          <mxGeometry x="3665" y="1710" width="120" height="80" as="geometry" />
        </mxCell>
        <mxCell id="LGg4eHonx4aCfMcOr95j-50" value="Rétroviseur&lt;br&gt;électriques" style="ellipse;whiteSpace=wrap;html=1;" parent="1" vertex="1">
          <mxGeometry x="3985" y="1490" width="120" height="80" as="geometry" />
        </mxCell>
        <mxCell id="LGg4eHonx4aCfMcOr95j-51" value="Vitres électriques" style="ellipse;whiteSpace=wrap;html=1;" parent="1" vertex="1">
          <mxGeometry x="4055" y="1570" width="120" height="80" as="geometry" />
        </mxCell>
        <mxCell id="LGg4eHonx4aCfMcOr95j-52" value="Verrouillage centralisé&lt;br&gt;des portes" style="ellipse;whiteSpace=wrap;html=1;" parent="1" vertex="1">
          <mxGeometry x="4105" y="1660" width="120" height="80" as="geometry" />
        </mxCell>
        <mxCell id="LGg4eHonx4aCfMcOr95j-53" value="ESP" style="ellipse;whiteSpace=wrap;html=1;" parent="1" vertex="1">
          <mxGeometry x="3755" y="1790" width="120" height="80" as="geometry" />
        </mxCell>
        <mxCell id="LGg4eHonx4aCfMcOr95j-54" value="Système audio&lt;br&gt;de bases" style="ellipse;whiteSpace=wrap;html=1;" parent="1" vertex="1">
          <mxGeometry x="3875" y="1840" width="120" height="80" as="geometry" />
        </mxCell>
        <mxCell id="LGg4eHonx4aCfMcOr95j-55" value="Climatisation" style="ellipse;whiteSpace=wrap;html=1;" parent="1" vertex="1">
          <mxGeometry x="4005" y="1840" width="120" height="80" as="geometry" />
        </mxCell>
        <mxCell id="LGg4eHonx4aCfMcOr95j-56" value="Airbags frontons&lt;br&gt;et latéraux" style="ellipse;whiteSpace=wrap;html=1;" parent="1" vertex="1">
          <mxGeometry x="4085" y="1750" width="120" height="80" as="geometry" />
        </mxCell>
        <mxCell id="LGg4eHonx4aCfMcOr95j-57" value="&amp;lt;&amp;lt;extend&amp;gt;&amp;gt;" style="html=1;verticalAlign=bottom;labelBackgroundColor=none;endArrow=open;endFill=0;dashed=1;rounded=0;" parent="1" source="LGg4eHonx4aCfMcOr95j-50" target="LGg4eHonx4aCfMcOr95j-45" edge="1">
          <mxGeometry width="160" relative="1" as="geometry">
            <mxPoint x="3425" y="1800" as="sourcePoint" />
            <mxPoint x="3585" y="1800" as="targetPoint" />
          </mxGeometry>
        </mxCell>
        <mxCell id="LGg4eHonx4aCfMcOr95j-58" value="&amp;lt;&amp;lt;extend&amp;gt;&amp;gt;" style="html=1;verticalAlign=bottom;labelBackgroundColor=none;endArrow=open;endFill=0;dashed=1;rounded=0;" parent="1" source="LGg4eHonx4aCfMcOr95j-51" target="LGg4eHonx4aCfMcOr95j-45" edge="1">
          <mxGeometry x="0.5753" y="3" width="160" relative="1" as="geometry">
            <mxPoint x="3425" y="1800" as="sourcePoint" />
            <mxPoint x="3585" y="1800" as="targetPoint" />
            <mxPoint x="-1" as="offset" />
          </mxGeometry>
        </mxCell>
        <mxCell id="LGg4eHonx4aCfMcOr95j-59" value="&amp;lt;&amp;lt;extend&amp;gt;&amp;gt;" style="html=1;verticalAlign=bottom;labelBackgroundColor=none;endArrow=open;endFill=0;dashed=1;rounded=0;" parent="1" source="LGg4eHonx4aCfMcOr95j-52" target="LGg4eHonx4aCfMcOr95j-45" edge="1">
          <mxGeometry width="160" relative="1" as="geometry">
            <mxPoint x="3425" y="1800" as="sourcePoint" />
            <mxPoint x="3585" y="1800" as="targetPoint" />
          </mxGeometry>
        </mxCell>
        <mxCell id="LGg4eHonx4aCfMcOr95j-60" value="&amp;lt;&amp;lt;extend&amp;gt;&amp;gt;" style="html=1;verticalAlign=bottom;labelBackgroundColor=none;endArrow=open;endFill=0;dashed=1;rounded=0;" parent="1" source="LGg4eHonx4aCfMcOr95j-53" target="LGg4eHonx4aCfMcOr95j-45" edge="1">
          <mxGeometry x="0.0003" width="160" relative="1" as="geometry">
            <mxPoint x="3425" y="1800" as="sourcePoint" />
            <mxPoint x="3705" y="1510" as="targetPoint" />
            <mxPoint as="offset" />
          </mxGeometry>
        </mxCell>
        <mxCell id="LGg4eHonx4aCfMcOr95j-61" value="&amp;lt;&amp;lt;extend&amp;gt;&amp;gt;" style="html=1;verticalAlign=bottom;labelBackgroundColor=none;endArrow=open;endFill=0;dashed=1;rounded=0;" parent="1" source="LGg4eHonx4aCfMcOr95j-54" target="LGg4eHonx4aCfMcOr95j-45" edge="1">
          <mxGeometry width="160" relative="1" as="geometry">
            <mxPoint x="3425" y="1800" as="sourcePoint" />
            <mxPoint x="3585" y="1800" as="targetPoint" />
          </mxGeometry>
        </mxCell>
        <mxCell id="LGg4eHonx4aCfMcOr95j-62" value="&amp;lt;&amp;lt;extend&amp;gt;&amp;gt;" style="html=1;verticalAlign=bottom;labelBackgroundColor=none;endArrow=open;endFill=0;dashed=1;rounded=0;" parent="1" source="LGg4eHonx4aCfMcOr95j-55" target="LGg4eHonx4aCfMcOr95j-45" edge="1">
          <mxGeometry x="-0.0019" width="160" relative="1" as="geometry">
            <mxPoint x="3425" y="1800" as="sourcePoint" />
            <mxPoint x="3585" y="1800" as="targetPoint" />
            <mxPoint as="offset" />
          </mxGeometry>
        </mxCell>
        <mxCell id="LGg4eHonx4aCfMcOr95j-63" value="&amp;lt;&amp;lt;extend&amp;gt;&amp;gt;" style="html=1;verticalAlign=bottom;labelBackgroundColor=none;endArrow=open;endFill=0;dashed=1;rounded=0;" parent="1" source="LGg4eHonx4aCfMcOr95j-56" target="LGg4eHonx4aCfMcOr95j-45" edge="1">
          <mxGeometry width="160" relative="1" as="geometry">
            <mxPoint x="3425" y="1800" as="sourcePoint" />
            <mxPoint x="3585" y="1800" as="targetPoint" />
          </mxGeometry>
        </mxCell>
        <mxCell id="LGg4eHonx4aCfMcOr95j-64" value="&amp;lt;&amp;lt;extend&amp;gt;&amp;gt;" style="html=1;verticalAlign=bottom;labelBackgroundColor=none;endArrow=open;endFill=0;dashed=1;rounded=0;" parent="1" source="LGg4eHonx4aCfMcOr95j-49" target="LGg4eHonx4aCfMcOr95j-45" edge="1">
          <mxGeometry x="-0.0011" width="160" relative="1" as="geometry">
            <mxPoint x="3425" y="1800" as="sourcePoint" />
            <mxPoint x="3585" y="1800" as="targetPoint" />
            <mxPoint as="offset" />
          </mxGeometry>
        </mxCell>
        <mxCell id="LGg4eHonx4aCfMcOr95j-65" value="Surveillance &lt;br&gt;angle mort" style="ellipse;whiteSpace=wrap;html=1;" parent="1" vertex="1">
          <mxGeometry x="4145" y="1100" width="120" height="80" as="geometry" />
        </mxCell>
        <mxCell id="LGg4eHonx4aCfMcOr95j-66" value="Régulateur &lt;br&gt;de vitesse" style="ellipse;whiteSpace=wrap;html=1;" parent="1" vertex="1">
          <mxGeometry x="4275" y="1130" width="120" height="80" as="geometry" />
        </mxCell>
        <mxCell id="LGg4eHonx4aCfMcOr95j-67" value="AEB" style="ellipse;whiteSpace=wrap;html=1;" parent="1" vertex="1">
          <mxGeometry x="4365" y="1190" width="120" height="80" as="geometry" />
        </mxCell>
        <mxCell id="LGg4eHonx4aCfMcOr95j-68" value="Reconnaissance&amp;nbsp;&lt;br&gt;vocal" style="ellipse;whiteSpace=wrap;html=1;" parent="1" vertex="1">
          <mxGeometry x="4395" y="1270" width="120" height="80" as="geometry" />
        </mxCell>
        <mxCell id="LGg4eHonx4aCfMcOr95j-69" value="Aide au stationnement" style="ellipse;whiteSpace=wrap;html=1;" parent="1" vertex="1">
          <mxGeometry x="4305" y="1325" width="120" height="80" as="geometry" />
        </mxCell>
        <mxCell id="LGg4eHonx4aCfMcOr95j-70" value="Caméra de recul" style="ellipse;whiteSpace=wrap;html=1;" parent="1" vertex="1">
          <mxGeometry x="4185" y="1360" width="120" height="80" as="geometry" />
        </mxCell>
        <mxCell id="LGg4eHonx4aCfMcOr95j-71" value="Bluetooth" style="ellipse;whiteSpace=wrap;html=1;" parent="1" vertex="1">
          <mxGeometry x="4065" y="1380" width="120" height="80" as="geometry" />
        </mxCell>
        <mxCell id="LGg4eHonx4aCfMcOr95j-72" value="Ecran tactile" style="ellipse;whiteSpace=wrap;html=1;" parent="1" vertex="1">
          <mxGeometry x="3935" y="1390" width="120" height="80" as="geometry" />
        </mxCell>
        <mxCell id="LGg4eHonx4aCfMcOr95j-73" value="&amp;lt;&amp;lt;extend&amp;gt;&amp;gt;" style="html=1;verticalAlign=bottom;labelBackgroundColor=none;endArrow=open;endFill=0;dashed=1;rounded=0;" parent="1" source="LGg4eHonx4aCfMcOr95j-65" target="LGg4eHonx4aCfMcOr95j-46" edge="1">
          <mxGeometry width="160" relative="1" as="geometry">
            <mxPoint x="3990" y="1290" as="sourcePoint" />
            <mxPoint x="4150" y="1290" as="targetPoint" />
          </mxGeometry>
        </mxCell>
        <mxCell id="LGg4eHonx4aCfMcOr95j-74" value="&amp;lt;&amp;lt;extend&amp;gt;&amp;gt;" style="html=1;verticalAlign=bottom;labelBackgroundColor=none;endArrow=open;endFill=0;dashed=1;rounded=0;" parent="1" source="LGg4eHonx4aCfMcOr95j-66" target="LGg4eHonx4aCfMcOr95j-46" edge="1">
          <mxGeometry width="160" relative="1" as="geometry">
            <mxPoint x="3990" y="1290" as="sourcePoint" />
            <mxPoint x="4150" y="1290" as="targetPoint" />
          </mxGeometry>
        </mxCell>
        <mxCell id="LGg4eHonx4aCfMcOr95j-75" value="&amp;lt;&amp;lt;extend&amp;gt;&amp;gt;" style="html=1;verticalAlign=bottom;labelBackgroundColor=none;endArrow=open;endFill=0;dashed=1;rounded=0;" parent="1" source="LGg4eHonx4aCfMcOr95j-67" target="LGg4eHonx4aCfMcOr95j-46" edge="1">
          <mxGeometry width="160" relative="1" as="geometry">
            <mxPoint x="3990" y="1290" as="sourcePoint" />
            <mxPoint x="4150" y="1290" as="targetPoint" />
          </mxGeometry>
        </mxCell>
        <mxCell id="LGg4eHonx4aCfMcOr95j-76" value="&amp;lt;&amp;lt;extend&amp;gt;&amp;gt;" style="html=1;verticalAlign=bottom;labelBackgroundColor=none;endArrow=open;endFill=0;dashed=1;rounded=0;" parent="1" source="LGg4eHonx4aCfMcOr95j-68" target="LGg4eHonx4aCfMcOr95j-46" edge="1">
          <mxGeometry x="-0.0011" width="160" relative="1" as="geometry">
            <mxPoint x="3990" y="1290" as="sourcePoint" />
            <mxPoint x="4150" y="1290" as="targetPoint" />
            <mxPoint as="offset" />
          </mxGeometry>
        </mxCell>
        <mxCell id="LGg4eHonx4aCfMcOr95j-77" value="&amp;lt;&amp;lt;extend&amp;gt;&amp;gt;" style="html=1;verticalAlign=bottom;labelBackgroundColor=none;endArrow=open;endFill=0;dashed=1;rounded=0;" parent="1" source="LGg4eHonx4aCfMcOr95j-69" target="LGg4eHonx4aCfMcOr95j-46" edge="1">
          <mxGeometry x="0.0018" width="160" relative="1" as="geometry">
            <mxPoint x="3990" y="1290" as="sourcePoint" />
            <mxPoint x="4150" y="1290" as="targetPoint" />
            <mxPoint as="offset" />
          </mxGeometry>
        </mxCell>
        <mxCell id="LGg4eHonx4aCfMcOr95j-78" value="&amp;lt;&amp;lt;extend&amp;gt;&amp;gt;" style="html=1;verticalAlign=bottom;labelBackgroundColor=none;endArrow=open;endFill=0;dashed=1;rounded=0;" parent="1" source="LGg4eHonx4aCfMcOr95j-70" target="LGg4eHonx4aCfMcOr95j-46" edge="1">
          <mxGeometry width="160" relative="1" as="geometry">
            <mxPoint x="3990" y="1290" as="sourcePoint" />
            <mxPoint x="4150" y="1290" as="targetPoint" />
          </mxGeometry>
        </mxCell>
        <mxCell id="LGg4eHonx4aCfMcOr95j-79" value="&amp;lt;&amp;lt;extend&amp;gt;&amp;gt;" style="html=1;verticalAlign=bottom;labelBackgroundColor=none;endArrow=open;endFill=0;dashed=1;rounded=0;" parent="1" source="LGg4eHonx4aCfMcOr95j-71" target="LGg4eHonx4aCfMcOr95j-46" edge="1">
          <mxGeometry x="0.0028" width="160" relative="1" as="geometry">
            <mxPoint x="3990" y="1290" as="sourcePoint" />
            <mxPoint x="4150" y="1290" as="targetPoint" />
            <mxPoint as="offset" />
          </mxGeometry>
        </mxCell>
        <mxCell id="LGg4eHonx4aCfMcOr95j-80" value="&amp;lt;&amp;lt;extend&amp;gt;&amp;gt;" style="html=1;verticalAlign=bottom;labelBackgroundColor=none;endArrow=open;endFill=0;dashed=1;rounded=0;exitX=0.5;exitY=0;exitDx=0;exitDy=0;" parent="1" source="LGg4eHonx4aCfMcOr95j-72" target="LGg4eHonx4aCfMcOr95j-46" edge="1">
          <mxGeometry width="160" relative="1" as="geometry">
            <mxPoint x="3990" y="1290" as="sourcePoint" />
            <mxPoint x="4150" y="1290" as="targetPoint" />
          </mxGeometry>
        </mxCell>
        <mxCell id="LGg4eHonx4aCfMcOr95j-81" value="Jantes&lt;br&gt;allliage" style="ellipse;whiteSpace=wrap;html=1;" parent="1" vertex="1">
          <mxGeometry x="4365" y="770" width="120" height="80" as="geometry" />
        </mxCell>
        <mxCell id="LGg4eHonx4aCfMcOr95j-82" value="Phares LED" style="ellipse;whiteSpace=wrap;html=1;" parent="1" vertex="1">
          <mxGeometry x="4235" y="770" width="120" height="80" as="geometry" />
        </mxCell>
        <mxCell id="LGg4eHonx4aCfMcOr95j-83" value="Toit ouvrant&amp;nbsp;&lt;br&gt;panoramique" style="ellipse;whiteSpace=wrap;html=1;" parent="1" vertex="1">
          <mxGeometry x="4605" y="930" width="120" height="80" as="geometry" />
        </mxCell>
        <mxCell id="LGg4eHonx4aCfMcOr95j-84" value="Navigation intégré" style="ellipse;whiteSpace=wrap;html=1;" parent="1" vertex="1">
          <mxGeometry x="4485" y="970" width="120" height="80" as="geometry" />
        </mxCell>
        <mxCell id="LGg4eHonx4aCfMcOr95j-85" value="Interieur&lt;br&gt;(cuir /tissu)" style="ellipse;whiteSpace=wrap;html=1;" parent="1" vertex="1">
          <mxGeometry x="4365" y="1000" width="120" height="80" as="geometry" />
        </mxCell>
        <mxCell id="LGg4eHonx4aCfMcOr95j-86" value="Couleur" style="ellipse;whiteSpace=wrap;html=1;" parent="1" vertex="1">
          <mxGeometry x="4235" y="1010" width="120" height="80" as="geometry" />
        </mxCell>
        <mxCell id="LGg4eHonx4aCfMcOr95j-87" value="Sièges chauffant" style="ellipse;whiteSpace=wrap;html=1;" parent="1" vertex="1">
          <mxGeometry x="4605" y="840" width="120" height="80" as="geometry" />
        </mxCell>
        <mxCell id="LGg4eHonx4aCfMcOr95j-88" value="Volant&lt;br&gt;multifonction" style="ellipse;whiteSpace=wrap;html=1;" parent="1" vertex="1">
          <mxGeometry x="4495" y="790" width="120" height="80" as="geometry" />
        </mxCell>
        <mxCell id="LGg4eHonx4aCfMcOr95j-89" value="&amp;lt;&amp;lt;extend&amp;gt;&amp;gt;" style="html=1;verticalAlign=bottom;labelBackgroundColor=none;endArrow=open;endFill=0;dashed=1;rounded=0;" parent="1" source="LGg4eHonx4aCfMcOr95j-88" target="LGg4eHonx4aCfMcOr95j-47" edge="1">
          <mxGeometry width="160" relative="1" as="geometry">
            <mxPoint x="4415" y="910" as="sourcePoint" />
            <mxPoint x="4575" y="910" as="targetPoint" />
          </mxGeometry>
        </mxCell>
        <mxCell id="LGg4eHonx4aCfMcOr95j-90" value="&amp;lt;&amp;lt;extend&amp;gt;&amp;gt;" style="html=1;verticalAlign=bottom;labelBackgroundColor=none;endArrow=open;endFill=0;dashed=1;rounded=0;" parent="1" source="LGg4eHonx4aCfMcOr95j-87" target="LGg4eHonx4aCfMcOr95j-47" edge="1">
          <mxGeometry x="0.0004" width="160" relative="1" as="geometry">
            <mxPoint x="4415" y="910" as="sourcePoint" />
            <mxPoint x="4575" y="910" as="targetPoint" />
            <mxPoint as="offset" />
          </mxGeometry>
        </mxCell>
        <mxCell id="LGg4eHonx4aCfMcOr95j-92" value="&amp;lt;&amp;lt;extend&amp;gt;&amp;gt;" style="html=1;verticalAlign=bottom;labelBackgroundColor=none;endArrow=open;endFill=0;dashed=1;rounded=0;" parent="1" source="LGg4eHonx4aCfMcOr95j-84" target="LGg4eHonx4aCfMcOr95j-47" edge="1">
          <mxGeometry x="-0.0747" y="-7" width="160" relative="1" as="geometry">
            <mxPoint x="4415" y="910" as="sourcePoint" />
            <mxPoint x="4575" y="910" as="targetPoint" />
            <mxPoint as="offset" />
          </mxGeometry>
        </mxCell>
        <mxCell id="LGg4eHonx4aCfMcOr95j-93" value="&amp;lt;&amp;lt;extend&amp;gt;&amp;gt;" style="html=1;verticalAlign=bottom;labelBackgroundColor=none;endArrow=open;endFill=0;dashed=1;rounded=0;" parent="1" source="LGg4eHonx4aCfMcOr95j-85" target="LGg4eHonx4aCfMcOr95j-47" edge="1">
          <mxGeometry width="160" relative="1" as="geometry">
            <mxPoint x="4415" y="910" as="sourcePoint" />
            <mxPoint x="4575" y="910" as="targetPoint" />
          </mxGeometry>
        </mxCell>
        <mxCell id="LGg4eHonx4aCfMcOr95j-94" value="&amp;lt;&amp;lt;extend&amp;gt;&amp;gt;" style="html=1;verticalAlign=bottom;labelBackgroundColor=none;endArrow=open;endFill=0;dashed=1;rounded=0;" parent="1" source="LGg4eHonx4aCfMcOr95j-86" target="LGg4eHonx4aCfMcOr95j-47" edge="1">
          <mxGeometry x="0.0598" y="-11" width="160" relative="1" as="geometry">
            <mxPoint x="4415" y="910" as="sourcePoint" />
            <mxPoint x="4575" y="910" as="targetPoint" />
            <mxPoint as="offset" />
          </mxGeometry>
        </mxCell>
        <mxCell id="LGg4eHonx4aCfMcOr95j-95" value="&amp;lt;&amp;lt;extend&amp;gt;&amp;gt;" style="html=1;verticalAlign=bottom;labelBackgroundColor=none;endArrow=open;endFill=0;dashed=1;rounded=0;" parent="1" source="LGg4eHonx4aCfMcOr95j-81" target="LGg4eHonx4aCfMcOr95j-47" edge="1">
          <mxGeometry x="0.0006" width="160" relative="1" as="geometry">
            <mxPoint x="4415" y="910" as="sourcePoint" />
            <mxPoint x="4575" y="910" as="targetPoint" />
            <mxPoint as="offset" />
          </mxGeometry>
        </mxCell>
        <mxCell id="LGg4eHonx4aCfMcOr95j-96" value="&amp;lt;&amp;lt;extend&amp;gt;&amp;gt;" style="html=1;verticalAlign=bottom;labelBackgroundColor=none;endArrow=open;endFill=0;dashed=1;rounded=0;" parent="1" source="LGg4eHonx4aCfMcOr95j-82" target="LGg4eHonx4aCfMcOr95j-47" edge="1">
          <mxGeometry x="0.0005" width="160" relative="1" as="geometry">
            <mxPoint x="4415" y="910" as="sourcePoint" />
            <mxPoint x="4215" y="900" as="targetPoint" />
            <mxPoint as="offset" />
          </mxGeometry>
        </mxCell>
        <mxCell id="LGg4eHonx4aCfMcOr95j-98" value="&amp;lt;&amp;lt;extend&amp;gt;&amp;gt;" style="html=1;verticalAlign=bottom;labelBackgroundColor=none;endArrow=open;endFill=0;dashed=1;rounded=0;" parent="1" source="LGg4eHonx4aCfMcOr95j-83" target="LGg4eHonx4aCfMcOr95j-47" edge="1">
          <mxGeometry x="0.0004" width="160" relative="1" as="geometry">
            <mxPoint x="4415" y="910" as="sourcePoint" />
            <mxPoint x="4575" y="910" as="targetPoint" />
            <mxPoint as="offset" />
          </mxGeometry>
        </mxCell>
        <mxCell id="LGg4eHonx4aCfMcOr95j-99" value="&amp;lt;&amp;lt;extend&amp;gt;&amp;gt;" style="html=1;verticalAlign=bottom;labelBackgroundColor=none;endArrow=open;endFill=0;dashed=1;rounded=0;entryX=0.74;entryY=0.067;entryDx=0;entryDy=0;entryPerimeter=0;" parent="1" source="LGg4eHonx4aCfMcOr95j-48" target="LGg4eHonx4aCfMcOr95j-44" edge="1">
          <mxGeometry width="160" relative="1" as="geometry">
            <mxPoint x="3015" y="1230" as="sourcePoint" />
            <mxPoint x="3175" y="1230" as="targetPoint" />
          </mxGeometry>
        </mxCell>
        <mxCell id="LGg4eHonx4aCfMcOr95j-100" value="&amp;lt;&amp;lt;extend&amp;gt;&amp;gt;" style="html=1;verticalAlign=bottom;labelBackgroundColor=none;endArrow=open;endFill=0;dashed=1;rounded=0;" parent="1" source="LGg4eHonx4aCfMcOr95j-47" target="LGg4eHonx4aCfMcOr95j-44" edge="1">
          <mxGeometry width="160" relative="1" as="geometry">
            <mxPoint x="3115" y="1300" as="sourcePoint" />
            <mxPoint x="3275" y="1300" as="targetPoint" />
          </mxGeometry>
        </mxCell>
        <mxCell id="LGg4eHonx4aCfMcOr95j-101" value="&amp;lt;&amp;lt;extend&amp;gt;&amp;gt;" style="html=1;verticalAlign=bottom;labelBackgroundColor=none;endArrow=open;endFill=0;dashed=1;rounded=0;" parent="1" source="LGg4eHonx4aCfMcOr95j-45" target="LGg4eHonx4aCfMcOr95j-44" edge="1">
          <mxGeometry x="-0.0508" y="-13" width="160" relative="1" as="geometry">
            <mxPoint x="3385" y="1600" as="sourcePoint" />
            <mxPoint x="3545" y="1600" as="targetPoint" />
            <mxPoint as="offset" />
          </mxGeometry>
        </mxCell>
        <mxCell id="LGg4eHonx4aCfMcOr95j-102" value="&amp;lt;&amp;lt;extend&amp;gt;&amp;gt;" style="html=1;verticalAlign=bottom;labelBackgroundColor=none;endArrow=open;endFill=0;dashed=1;rounded=0;" parent="1" source="LGg4eHonx4aCfMcOr95j-46" target="LGg4eHonx4aCfMcOr95j-44" edge="1">
          <mxGeometry x="-0.1812" y="-29" width="160" relative="1" as="geometry">
            <mxPoint x="3385" y="1600" as="sourcePoint" />
            <mxPoint x="3545" y="1600" as="targetPoint" />
            <mxPoint y="1" as="offset" />
          </mxGeometry>
        </mxCell>
        <mxCell id="LGg4eHonx4aCfMcOr95j-103" value="Pack Hiver&lt;br&gt;( pare-brise chauffant,&lt;br&gt;sièges chauffatns arrière, etc )" style="ellipse;whiteSpace=wrap;html=1;" parent="1" vertex="1">
          <mxGeometry x="3895" y="560" width="200" height="80" as="geometry" />
        </mxCell>
        <mxCell id="LGg4eHonx4aCfMcOr95j-104" value="Systèmes son&amp;nbsp;&lt;br&gt;Haute Gamme" style="ellipse;whiteSpace=wrap;html=1;" parent="1" vertex="1">
          <mxGeometry x="3915" y="640" width="120" height="80" as="geometry" />
        </mxCell>
        <mxCell id="LGg4eHonx4aCfMcOr95j-105" value="Rétroviseurs&lt;br&gt;électriques et&lt;br&gt;dégivrants" style="ellipse;whiteSpace=wrap;html=1;" parent="1" vertex="1">
          <mxGeometry x="3905" y="740" width="120" height="80" as="geometry" />
        </mxCell>
        <mxCell id="LGg4eHonx4aCfMcOr95j-106" value="Alarme&amp;nbsp;&lt;br&gt;antivol" style="ellipse;whiteSpace=wrap;html=1;" parent="1" vertex="1">
          <mxGeometry x="3825" y="820" width="120" height="80" as="geometry" />
        </mxCell>
        <mxCell id="LGg4eHonx4aCfMcOr95j-107" value="Siège arrière&amp;nbsp;&lt;br&gt;rabattable" style="ellipse;whiteSpace=wrap;html=1;" parent="1" vertex="1">
          <mxGeometry x="3765" y="540" width="120" height="80" as="geometry" />
        </mxCell>
        <mxCell id="LGg4eHonx4aCfMcOr95j-108" value="&amp;nbsp;toit ouvrant&lt;br&gt;électrique" style="ellipse;whiteSpace=wrap;html=1;" parent="1" vertex="1">
          <mxGeometry x="3635" y="540" width="120" height="80" as="geometry" />
        </mxCell>
        <mxCell id="LGg4eHonx4aCfMcOr95j-109" value="Barres de toit" style="ellipse;whiteSpace=wrap;html=1;" parent="1" vertex="1">
          <mxGeometry x="3555" y="610" width="120" height="80" as="geometry" />
        </mxCell>
        <mxCell id="LGg4eHonx4aCfMcOr95j-110" value="Attelage de remorque" style="ellipse;whiteSpace=wrap;html=1;" parent="1" vertex="1">
          <mxGeometry x="3505" y="690" width="120" height="80" as="geometry" />
        </mxCell>
        <mxCell id="LGg4eHonx4aCfMcOr95j-111" value="&amp;lt;&amp;lt;extend&amp;gt;&amp;gt;" style="html=1;verticalAlign=bottom;labelBackgroundColor=none;endArrow=open;endFill=0;dashed=1;rounded=0;" parent="1" source="LGg4eHonx4aCfMcOr95j-106" target="LGg4eHonx4aCfMcOr95j-48" edge="1">
          <mxGeometry x="-0.0055" width="160" relative="1" as="geometry">
            <mxPoint x="3795.1524780100863" y="837.1501180004807" as="sourcePoint" />
            <mxPoint x="3865" y="690" as="targetPoint" />
            <mxPoint as="offset" />
          </mxGeometry>
        </mxCell>
        <mxCell id="LGg4eHonx4aCfMcOr95j-112" value="&amp;lt;&amp;lt;extend&amp;gt;&amp;gt;" style="html=1;verticalAlign=bottom;labelBackgroundColor=none;endArrow=open;endFill=0;dashed=1;rounded=0;exitX=0.3;exitY=0.047;exitDx=0;exitDy=0;exitPerimeter=0;" parent="1" source="LGg4eHonx4aCfMcOr95j-105" target="LGg4eHonx4aCfMcOr95j-48" edge="1">
          <mxGeometry x="0.0002" width="160" relative="1" as="geometry">
            <mxPoint x="3705" y="690" as="sourcePoint" />
            <mxPoint x="3865" y="690" as="targetPoint" />
            <mxPoint as="offset" />
          </mxGeometry>
        </mxCell>
        <mxCell id="LGg4eHonx4aCfMcOr95j-113" value="&amp;lt;&amp;lt;extend&amp;gt;&amp;gt;" style="html=1;verticalAlign=bottom;labelBackgroundColor=none;endArrow=open;endFill=0;dashed=1;rounded=0;" parent="1" source="LGg4eHonx4aCfMcOr95j-104" target="LGg4eHonx4aCfMcOr95j-48" edge="1">
          <mxGeometry x="-0.0103" width="160" relative="1" as="geometry">
            <mxPoint x="3715" y="690" as="sourcePoint" />
            <mxPoint x="3865" y="690" as="targetPoint" />
            <mxPoint as="offset" />
          </mxGeometry>
        </mxCell>
        <mxCell id="LGg4eHonx4aCfMcOr95j-114" value="&amp;lt;&amp;lt;extend&amp;gt;&amp;gt;" style="html=1;verticalAlign=bottom;labelBackgroundColor=none;endArrow=open;endFill=0;dashed=1;rounded=0;" parent="1" source="LGg4eHonx4aCfMcOr95j-103" target="LGg4eHonx4aCfMcOr95j-48" edge="1">
          <mxGeometry width="160" relative="1" as="geometry">
            <mxPoint x="3705" y="690" as="sourcePoint" />
            <mxPoint x="3865" y="690" as="targetPoint" />
          </mxGeometry>
        </mxCell>
        <mxCell id="LGg4eHonx4aCfMcOr95j-115" value="&amp;lt;&amp;lt;extend&amp;gt;&amp;gt;" style="html=1;verticalAlign=bottom;labelBackgroundColor=none;endArrow=open;endFill=0;dashed=1;rounded=0;" parent="1" source="LGg4eHonx4aCfMcOr95j-107" target="LGg4eHonx4aCfMcOr95j-48" edge="1">
          <mxGeometry x="0.0005" width="160" relative="1" as="geometry">
            <mxPoint x="3705" y="690" as="sourcePoint" />
            <mxPoint x="3865" y="690" as="targetPoint" />
            <mxPoint as="offset" />
          </mxGeometry>
        </mxCell>
        <mxCell id="LGg4eHonx4aCfMcOr95j-116" value="&amp;lt;&amp;lt;extend&amp;gt;&amp;gt;" style="html=1;verticalAlign=bottom;labelBackgroundColor=none;endArrow=open;endFill=0;dashed=1;rounded=0;" parent="1" source="LGg4eHonx4aCfMcOr95j-108" target="LGg4eHonx4aCfMcOr95j-48" edge="1">
          <mxGeometry x="0.0005" width="160" relative="1" as="geometry">
            <mxPoint x="3705" y="690" as="sourcePoint" />
            <mxPoint x="3865" y="690" as="targetPoint" />
            <mxPoint as="offset" />
          </mxGeometry>
        </mxCell>
        <mxCell id="LGg4eHonx4aCfMcOr95j-117" value="&amp;lt;&amp;lt;extend&amp;gt;&amp;gt;" style="html=1;verticalAlign=bottom;labelBackgroundColor=none;endArrow=open;endFill=0;dashed=1;rounded=0;" parent="1" source="LGg4eHonx4aCfMcOr95j-109" target="LGg4eHonx4aCfMcOr95j-48" edge="1">
          <mxGeometry x="-0.0008" width="160" relative="1" as="geometry">
            <mxPoint x="3705" y="690" as="sourcePoint" />
            <mxPoint x="3865" y="690" as="targetPoint" />
            <mxPoint as="offset" />
          </mxGeometry>
        </mxCell>
        <mxCell id="LGg4eHonx4aCfMcOr95j-118" value="&amp;lt;&amp;lt;extend&amp;gt;&amp;gt;" style="html=1;verticalAlign=bottom;labelBackgroundColor=none;endArrow=open;endFill=0;dashed=1;rounded=0;" parent="1" source="LGg4eHonx4aCfMcOr95j-110" target="LGg4eHonx4aCfMcOr95j-48" edge="1">
          <mxGeometry x="-0.1103" y="13" width="160" relative="1" as="geometry">
            <mxPoint x="3705" y="690" as="sourcePoint" />
            <mxPoint x="3865" y="690" as="targetPoint" />
            <mxPoint as="offset" />
          </mxGeometry>
        </mxCell>
        <mxCell id="LGg4eHonx4aCfMcOr95j-121" value="Modifier une voiture" style="ellipse;whiteSpace=wrap;html=1;" parent="1" vertex="1">
          <mxGeometry x="2015" y="1390" width="120" height="80" as="geometry" />
        </mxCell>
        <mxCell id="LGg4eHonx4aCfMcOr95j-122" value="Ajouter un voiture" style="ellipse;whiteSpace=wrap;html=1;" parent="1" vertex="1">
          <mxGeometry x="2005" y="1090" width="120" height="80" as="geometry" />
        </mxCell>
        <mxCell id="LGg4eHonx4aCfMcOr95j-126" value="&amp;lt;&amp;lt;extend&amp;gt;&amp;gt;" style="html=1;verticalAlign=bottom;labelBackgroundColor=none;endArrow=open;endFill=0;dashed=1;rounded=0;" parent="1" source="PiuN6YdRs1sVkymYL6tR-84" target="LGg4eHonx4aCfMcOr95j-122" edge="1">
          <mxGeometry width="160" relative="1" as="geometry">
            <mxPoint x="2445" y="1480" as="sourcePoint" />
            <mxPoint x="2605" y="1480" as="targetPoint" />
          </mxGeometry>
        </mxCell>
        <mxCell id="LGg4eHonx4aCfMcOr95j-127" value="&amp;lt;&amp;lt;extend&amp;gt;&amp;gt;" style="html=1;verticalAlign=bottom;labelBackgroundColor=none;endArrow=open;endFill=0;dashed=1;rounded=0;" parent="1" source="LGg4eHonx4aCfMcOr95j-44" target="LGg4eHonx4aCfMcOr95j-121" edge="1">
          <mxGeometry width="160" relative="1" as="geometry">
            <mxPoint x="2445" y="1480" as="sourcePoint" />
            <mxPoint x="2605" y="1480" as="targetPoint" />
          </mxGeometry>
        </mxCell>
        <mxCell id="LGg4eHonx4aCfMcOr95j-128" value="&amp;lt;&amp;lt;extend&amp;gt;&amp;gt;" style="html=1;verticalAlign=bottom;labelBackgroundColor=none;endArrow=open;endFill=0;dashed=1;rounded=0;" parent="1" source="PiuN6YdRs1sVkymYL6tR-93" target="LGg4eHonx4aCfMcOr95j-121" edge="1">
          <mxGeometry width="160" relative="1" as="geometry">
            <mxPoint x="2445" y="1480" as="sourcePoint" />
            <mxPoint x="2605" y="1480" as="targetPoint" />
          </mxGeometry>
        </mxCell>
        <mxCell id="LGg4eHonx4aCfMcOr95j-129" value="&amp;lt;&amp;lt;extend&amp;gt;&amp;gt;" style="html=1;verticalAlign=bottom;labelBackgroundColor=none;endArrow=open;endFill=0;dashed=1;rounded=0;" parent="1" source="PiuN6YdRs1sVkymYL6tR-87" target="LGg4eHonx4aCfMcOr95j-121" edge="1">
          <mxGeometry x="-0.0393" y="-17" width="160" relative="1" as="geometry">
            <mxPoint x="2445" y="1480" as="sourcePoint" />
            <mxPoint x="2605" y="1480" as="targetPoint" />
            <mxPoint as="offset" />
          </mxGeometry>
        </mxCell>
        <mxCell id="LGg4eHonx4aCfMcOr95j-130" value="&amp;lt;&amp;lt;extend&amp;gt;&amp;gt;" style="html=1;verticalAlign=bottom;labelBackgroundColor=none;endArrow=open;endFill=0;dashed=1;rounded=0;" parent="1" source="PiuN6YdRs1sVkymYL6tR-81" target="LGg4eHonx4aCfMcOr95j-121" edge="1">
          <mxGeometry x="-0.045" y="-16" width="160" relative="1" as="geometry">
            <mxPoint x="2445" y="1480" as="sourcePoint" />
            <mxPoint x="2175" y="1140" as="targetPoint" />
            <mxPoint as="offset" />
          </mxGeometry>
        </mxCell>
        <mxCell id="LGg4eHonx4aCfMcOr95j-132" value="&amp;lt;&amp;lt;extend&amp;gt;&amp;gt;" style="edgeStyle=none;html=1;startArrow=open;endArrow=none;startSize=12;verticalAlign=bottom;dashed=1;labelBackgroundColor=none;rounded=0;" parent="1" source="PiuN6YdRs1sVkymYL6tR-59" target="LGg4eHonx4aCfMcOr95j-122" edge="1">
          <mxGeometry x="-0.125" y="10" width="160" relative="1" as="geometry">
            <mxPoint x="1635" y="1480" as="sourcePoint" />
            <mxPoint x="1795" y="1480" as="targetPoint" />
            <mxPoint as="offset" />
          </mxGeometry>
        </mxCell>
        <mxCell id="LGg4eHonx4aCfMcOr95j-133" value="&amp;lt;&amp;lt;extend&amp;gt;&amp;gt;" style="edgeStyle=none;html=1;startArrow=open;endArrow=none;startSize=12;verticalAlign=bottom;dashed=1;labelBackgroundColor=none;rounded=0;" parent="1" source="PiuN6YdRs1sVkymYL6tR-59" target="LGg4eHonx4aCfMcOr95j-121" edge="1">
          <mxGeometry width="160" relative="1" as="geometry">
            <mxPoint x="1635" y="1480" as="sourcePoint" />
            <mxPoint x="1795" y="1480" as="targetPoint" />
          </mxGeometry>
        </mxCell>
        <mxCell id="LGg4eHonx4aCfMcOr95j-134" value="&amp;lt;&amp;lt;extend&amp;gt;&amp;gt;" style="html=1;verticalAlign=bottom;labelBackgroundColor=none;endArrow=open;endFill=0;dashed=1;rounded=0;" parent="1" source="PiuN6YdRs1sVkymYL6tR-81" target="LGg4eHonx4aCfMcOr95j-122" edge="1">
          <mxGeometry x="0.0004" width="160" relative="1" as="geometry">
            <mxPoint x="2492" y="1097" as="sourcePoint" />
            <mxPoint x="2318" y="1383" as="targetPoint" />
            <mxPoint as="offset" />
          </mxGeometry>
        </mxCell>
        <mxCell id="LGg4eHonx4aCfMcOr95j-135" value="&amp;lt;&amp;lt;extend&amp;gt;&amp;gt;" style="html=1;verticalAlign=bottom;labelBackgroundColor=none;endArrow=open;endFill=0;dashed=1;rounded=0;" parent="1" source="PiuN6YdRs1sVkymYL6tR-93" target="LGg4eHonx4aCfMcOr95j-122" edge="1">
          <mxGeometry x="-0.0009" width="160" relative="1" as="geometry">
            <mxPoint x="2502" y="1107" as="sourcePoint" />
            <mxPoint x="2328" y="1393" as="targetPoint" />
            <mxPoint as="offset" />
          </mxGeometry>
        </mxCell>
        <mxCell id="LGg4eHonx4aCfMcOr95j-136" value="&amp;lt;&amp;lt;extend&amp;gt;&amp;gt;" style="html=1;verticalAlign=bottom;labelBackgroundColor=none;endArrow=open;endFill=0;dashed=1;rounded=0;" parent="1" source="LGg4eHonx4aCfMcOr95j-44" target="LGg4eHonx4aCfMcOr95j-122" edge="1">
          <mxGeometry x="0.0003" width="160" relative="1" as="geometry">
            <mxPoint x="2512" y="1117" as="sourcePoint" />
            <mxPoint x="2338" y="1403" as="targetPoint" />
            <mxPoint as="offset" />
          </mxGeometry>
        </mxCell>
        <mxCell id="LGg4eHonx4aCfMcOr95j-137" value="&amp;lt;&amp;lt;extend&amp;gt;&amp;gt;" style="html=1;verticalAlign=bottom;labelBackgroundColor=none;endArrow=open;endFill=0;dashed=1;rounded=0;" parent="1" source="PiuN6YdRs1sVkymYL6tR-84" target="LGg4eHonx4aCfMcOr95j-121" edge="1">
          <mxGeometry width="160" relative="1" as="geometry">
            <mxPoint x="2522" y="1127" as="sourcePoint" />
            <mxPoint x="2348" y="1413" as="targetPoint" />
          </mxGeometry>
        </mxCell>
        <mxCell id="LGg4eHonx4aCfMcOr95j-138" value="&amp;lt;&amp;lt;extend&amp;gt;&amp;gt;" style="html=1;verticalAlign=bottom;labelBackgroundColor=none;endArrow=open;endFill=0;dashed=1;rounded=0;" parent="1" source="PiuN6YdRs1sVkymYL6tR-87" target="LGg4eHonx4aCfMcOr95j-122" edge="1">
          <mxGeometry x="0.0167" y="-11" width="160" relative="1" as="geometry">
            <mxPoint x="2532" y="1137" as="sourcePoint" />
            <mxPoint x="2358" y="1423" as="targetPoint" />
            <mxPoint as="offset" />
          </mxGeometry>
        </mxCell>
        <mxCell id="LGg4eHonx4aCfMcOr95j-139" value="Confirmation de suppression" style="ellipse;whiteSpace=wrap;html=1;" parent="1" vertex="1">
          <mxGeometry x="1865" y="610" width="120" height="80" as="geometry" />
        </mxCell>
        <mxCell id="LGg4eHonx4aCfMcOr95j-140" value="Gestion des dépendances" style="ellipse;whiteSpace=wrap;html=1;" parent="1" vertex="1">
          <mxGeometry x="1965" y="740" width="120" height="80" as="geometry" />
        </mxCell>
        <mxCell id="LGg4eHonx4aCfMcOr95j-141" value="Historiques de suppressions" style="ellipse;whiteSpace=wrap;html=1;" parent="1" vertex="1">
          <mxGeometry x="1700" y="610" width="120" height="80" as="geometry" />
        </mxCell>
        <mxCell id="LGg4eHonx4aCfMcOr95j-142" value="Notifications" style="ellipse;whiteSpace=wrap;html=1;" parent="1" vertex="1">
          <mxGeometry x="1545" y="630" width="120" height="80" as="geometry" />
        </mxCell>
        <mxCell id="LGg4eHonx4aCfMcOr95j-143" value="Supprimer un voiture" style="ellipse;whiteSpace=wrap;html=1;" parent="1" vertex="1">
          <mxGeometry x="1815" y="920" width="120" height="80" as="geometry" />
        </mxCell>
        <mxCell id="LGg4eHonx4aCfMcOr95j-158" value="&amp;lt;&amp;lt;extend&amp;gt;&amp;gt;" style="html=1;verticalAlign=bottom;labelBackgroundColor=none;endArrow=open;endFill=0;dashed=1;rounded=0;" parent="1" source="LGg4eHonx4aCfMcOr95j-139" target="LGg4eHonx4aCfMcOr95j-143" edge="1">
          <mxGeometry width="160" relative="1" as="geometry">
            <mxPoint x="1945" y="880" as="sourcePoint" />
            <mxPoint x="2105" y="880" as="targetPoint" />
          </mxGeometry>
        </mxCell>
        <mxCell id="LGg4eHonx4aCfMcOr95j-159" value="&amp;lt;&amp;lt;extend&amp;gt;&amp;gt;" style="html=1;verticalAlign=bottom;labelBackgroundColor=none;endArrow=open;endFill=0;dashed=1;rounded=0;" parent="1" source="LGg4eHonx4aCfMcOr95j-142" target="LGg4eHonx4aCfMcOr95j-143" edge="1">
          <mxGeometry width="160" relative="1" as="geometry">
            <mxPoint x="1945" y="880" as="sourcePoint" />
            <mxPoint x="2105" y="880" as="targetPoint" />
          </mxGeometry>
        </mxCell>
        <mxCell id="LGg4eHonx4aCfMcOr95j-160" value="&amp;lt;&amp;lt;extend&amp;gt;&amp;gt;" style="html=1;verticalAlign=bottom;labelBackgroundColor=none;endArrow=open;endFill=0;dashed=1;rounded=0;" parent="1" source="LGg4eHonx4aCfMcOr95j-141" target="LGg4eHonx4aCfMcOr95j-143" edge="1">
          <mxGeometry width="160" relative="1" as="geometry">
            <mxPoint x="1945" y="880" as="sourcePoint" />
            <mxPoint x="2105" y="880" as="targetPoint" />
          </mxGeometry>
        </mxCell>
        <mxCell id="LGg4eHonx4aCfMcOr95j-161" value="&amp;lt;&amp;lt;extend&amp;gt;&amp;gt;" style="html=1;verticalAlign=bottom;labelBackgroundColor=none;endArrow=open;endFill=0;dashed=1;rounded=0;" parent="1" source="LGg4eHonx4aCfMcOr95j-140" target="LGg4eHonx4aCfMcOr95j-143" edge="1">
          <mxGeometry width="160" relative="1" as="geometry">
            <mxPoint x="1945" y="880" as="sourcePoint" />
            <mxPoint x="2105" y="880" as="targetPoint" />
          </mxGeometry>
        </mxCell>
        <mxCell id="LGg4eHonx4aCfMcOr95j-162" value="" style="html=1;verticalAlign=bottom;labelBackgroundColor=none;endArrow=open;endFill=0;dashed=1;rounded=0;" parent="1" source="LGg4eHonx4aCfMcOr95j-143" target="PiuN6YdRs1sVkymYL6tR-59" edge="1">
          <mxGeometry width="160" relative="1" as="geometry">
            <mxPoint x="1755" y="1380" as="sourcePoint" />
            <mxPoint x="1915" y="1380" as="targetPoint" />
          </mxGeometry>
        </mxCell>
        <mxCell id="LGg4eHonx4aCfMcOr95j-163" value="&lt;font style=&quot;font-size: 20px;&quot;&gt;Accéder a la boite de réception des messages&lt;br&gt;&lt;br&gt;&lt;br&gt;Lire les messages&lt;br&gt;Répondre par email&lt;br&gt;Répondre par téléphone&lt;/font&gt;" style="shape=lineEllipse;perimeter=ellipsePerimeter;whiteSpace=wrap;html=1;backgroundOutline=1;" parent="1" vertex="1">
          <mxGeometry x="1890" y="2270" width="570" height="250" as="geometry" />
        </mxCell>
        <mxCell id="LGg4eHonx4aCfMcOr95j-165" value="Répondre par email" style="ellipse;whiteSpace=wrap;html=1;" parent="1" vertex="1">
          <mxGeometry x="2790" y="2460" width="120" height="80" as="geometry" />
        </mxCell>
        <mxCell id="LGg4eHonx4aCfMcOr95j-166" value="Répondre par téléphone" style="ellipse;whiteSpace=wrap;html=1;" parent="1" vertex="1">
          <mxGeometry x="2770" y="2640" width="120" height="80" as="geometry" />
        </mxCell>
        <mxCell id="LGg4eHonx4aCfMcOr95j-168" value="Lire les messages" style="ellipse;whiteSpace=wrap;html=1;" parent="1" vertex="1">
          <mxGeometry x="2610" y="2690" width="120" height="80" as="geometry" />
        </mxCell>
        <mxCell id="LGg4eHonx4aCfMcOr95j-169" value="&amp;lt;&amp;lt;extend&amp;gt;&amp;gt;" style="html=1;verticalAlign=bottom;labelBackgroundColor=none;endArrow=open;endFill=0;dashed=1;rounded=0;" parent="1" source="LGg4eHonx4aCfMcOr95j-166" target="LGg4eHonx4aCfMcOr95j-163" edge="1">
          <mxGeometry width="160" relative="1" as="geometry">
            <mxPoint x="2450" y="2760" as="sourcePoint" />
            <mxPoint x="2610" y="2760" as="targetPoint" />
          </mxGeometry>
        </mxCell>
        <mxCell id="LGg4eHonx4aCfMcOr95j-170" value="&amp;lt;&amp;lt;extend&amp;gt;&amp;gt;" style="html=1;verticalAlign=bottom;labelBackgroundColor=none;endArrow=open;endFill=0;dashed=1;rounded=0;" parent="1" source="LGg4eHonx4aCfMcOr95j-165" target="LGg4eHonx4aCfMcOr95j-163" edge="1">
          <mxGeometry width="160" relative="1" as="geometry">
            <mxPoint x="2526" y="2720" as="sourcePoint" />
            <mxPoint x="2610" y="2760" as="targetPoint" />
            <Array as="points" />
          </mxGeometry>
        </mxCell>
        <mxCell id="LGg4eHonx4aCfMcOr95j-171" value="&amp;lt;&amp;lt;extend&amp;gt;&amp;gt;" style="html=1;verticalAlign=bottom;labelBackgroundColor=none;endArrow=open;endFill=0;dashed=1;rounded=0;" parent="1" source="LGg4eHonx4aCfMcOr95j-168" target="LGg4eHonx4aCfMcOr95j-163" edge="1">
          <mxGeometry width="160" relative="1" as="geometry">
            <mxPoint x="2450" y="2760" as="sourcePoint" />
            <mxPoint x="2610" y="2760" as="targetPoint" />
          </mxGeometry>
        </mxCell>
        <mxCell id="LGg4eHonx4aCfMcOr95j-172" value="&lt;font style=&quot;font-size: 20px;&quot;&gt;Accéder au témoignages&lt;br&gt;&lt;br&gt;&lt;br&gt;&lt;br&gt;Lire un témoignages&lt;br&gt;Valider un témoignages&lt;br&gt;Refuser un témoignages&lt;/font&gt;" style="shape=lineEllipse;perimeter=ellipsePerimeter;whiteSpace=wrap;html=1;backgroundOutline=1;" parent="1" vertex="1">
          <mxGeometry x="620" y="1157.5" width="390" height="270" as="geometry" />
        </mxCell>
        <mxCell id="LGg4eHonx4aCfMcOr95j-173" value="Lire un témoignages" style="ellipse;whiteSpace=wrap;html=1;" parent="1" vertex="1">
          <mxGeometry x="570" y="792.5" width="120" height="80" as="geometry" />
        </mxCell>
        <mxCell id="LGg4eHonx4aCfMcOr95j-174" value="Validé un témoignages" style="ellipse;whiteSpace=wrap;html=1;" parent="1" vertex="1">
          <mxGeometry x="770" y="827.5" width="120" height="80" as="geometry" />
        </mxCell>
        <mxCell id="LGg4eHonx4aCfMcOr95j-175" value="Refuser un&lt;br&gt;&amp;nbsp;témoignage" style="ellipse;whiteSpace=wrap;html=1;" parent="1" vertex="1">
          <mxGeometry x="1000" y="882.5" width="150" height="90" as="geometry" />
        </mxCell>
        <mxCell id="LGg4eHonx4aCfMcOr95j-176" value="&amp;lt;&amp;lt;extend&amp;gt;&amp;gt;" style="html=1;verticalAlign=bottom;labelBackgroundColor=none;endArrow=open;endFill=0;dashed=1;rounded=0;" parent="1" source="LGg4eHonx4aCfMcOr95j-175" target="LGg4eHonx4aCfMcOr95j-172" edge="1">
          <mxGeometry width="160" relative="1" as="geometry">
            <mxPoint x="760" y="1617.5" as="sourcePoint" />
            <mxPoint x="920" y="1617.5" as="targetPoint" />
          </mxGeometry>
        </mxCell>
        <mxCell id="LGg4eHonx4aCfMcOr95j-177" value="&amp;lt;&amp;lt;extend&amp;gt;&amp;gt;" style="html=1;verticalAlign=bottom;labelBackgroundColor=none;endArrow=open;endFill=0;dashed=1;rounded=0;" parent="1" source="LGg4eHonx4aCfMcOr95j-173" target="LGg4eHonx4aCfMcOr95j-172" edge="1">
          <mxGeometry width="160" relative="1" as="geometry">
            <mxPoint x="760" y="1617.5" as="sourcePoint" />
            <mxPoint x="920" y="1617.5" as="targetPoint" />
          </mxGeometry>
        </mxCell>
        <mxCell id="LGg4eHonx4aCfMcOr95j-178" value="&amp;lt;&amp;lt;extend&amp;gt;&amp;gt;" style="html=1;verticalAlign=bottom;labelBackgroundColor=none;endArrow=open;endFill=0;dashed=1;rounded=0;" parent="1" source="LGg4eHonx4aCfMcOr95j-174" target="LGg4eHonx4aCfMcOr95j-172" edge="1">
          <mxGeometry width="160" relative="1" as="geometry">
            <mxPoint x="760" y="1617.5" as="sourcePoint" />
            <mxPoint x="920" y="1617.5" as="targetPoint" />
          </mxGeometry>
        </mxCell>
        <mxCell id="UN-YOEddknogz6FVTxAK-1" value="&lt;font style=&quot;font-size: 20px;&quot;&gt;Se connecter&lt;/font&gt;" style="ellipse;whiteSpace=wrap;html=1;" parent="1" vertex="1">
          <mxGeometry x="1450" y="1815" width="210" height="100" as="geometry" />
        </mxCell>
        <mxCell id="UN-YOEddknogz6FVTxAK-3" value="&lt;font style=&quot;font-size: 20px;&quot;&gt;Création de compte&lt;br&gt;&lt;br&gt;Vérification de la force de MDP&lt;br&gt;&lt;/font&gt;" style="shape=lineEllipse;perimeter=ellipsePerimeter;whiteSpace=wrap;html=1;backgroundOutline=1;" parent="1" vertex="1">
          <mxGeometry x="890" y="2100" width="320" height="210" as="geometry" />
        </mxCell>
        <mxCell id="UN-YOEddknogz6FVTxAK-4" value="Saisir identifiant&lt;br&gt;et mot de passe" style="ellipse;whiteSpace=wrap;html=1;" parent="1" vertex="1">
          <mxGeometry x="590" y="2300" width="120" height="80" as="geometry" />
        </mxCell>
        <mxCell id="UN-YOEddknogz6FVTxAK-5" value="Vérification de l&#39;adresse email" style="ellipse;whiteSpace=wrap;html=1;" parent="1" vertex="1">
          <mxGeometry x="720" y="2380" width="150" height="80" as="geometry" />
        </mxCell>
        <mxCell id="UN-YOEddknogz6FVTxAK-6" value="Vérification de la force &lt;br&gt;du motde passe" style="ellipse;whiteSpace=wrap;html=1;" parent="1" vertex="1">
          <mxGeometry x="1200" y="2370" width="160" height="80" as="geometry" />
        </mxCell>
        <mxCell id="UN-YOEddknogz6FVTxAK-7" value="&amp;lt;&amp;lt;extend&amp;gt;&amp;gt;" style="html=1;verticalAlign=bottom;labelBackgroundColor=none;endArrow=open;endFill=0;dashed=1;rounded=0;" parent="1" source="UN-YOEddknogz6FVTxAK-6" target="UN-YOEddknogz6FVTxAK-3" edge="1">
          <mxGeometry width="160" relative="1" as="geometry">
            <mxPoint x="1010" y="2230" as="sourcePoint" />
            <mxPoint x="1170" y="2230" as="targetPoint" />
          </mxGeometry>
        </mxCell>
        <mxCell id="UN-YOEddknogz6FVTxAK-8" value="&amp;lt;&amp;lt;include&amp;gt;&amp;gt;" style="html=1;verticalAlign=bottom;labelBackgroundColor=none;endArrow=open;endFill=0;dashed=1;rounded=0;" parent="1" source="UN-YOEddknogz6FVTxAK-5" target="UN-YOEddknogz6FVTxAK-3" edge="1">
          <mxGeometry width="160" relative="1" as="geometry">
            <mxPoint x="1010" y="2230" as="sourcePoint" />
            <mxPoint x="1170" y="2230" as="targetPoint" />
          </mxGeometry>
        </mxCell>
        <mxCell id="UN-YOEddknogz6FVTxAK-9" value="&amp;lt;&amp;lt;include&amp;gt;&amp;gt;" style="html=1;verticalAlign=bottom;labelBackgroundColor=none;endArrow=open;endFill=0;dashed=1;rounded=0;" parent="1" source="UN-YOEddknogz6FVTxAK-4" target="UN-YOEddknogz6FVTxAK-3" edge="1">
          <mxGeometry width="160" relative="1" as="geometry">
            <mxPoint x="1010" y="2230" as="sourcePoint" />
            <mxPoint x="1170" y="2230" as="targetPoint" />
          </mxGeometry>
        </mxCell>
        <mxCell id="UN-YOEddknogz6FVTxAK-10" value="Saisir identifiant&lt;br&gt;et mot de passe" style="ellipse;whiteSpace=wrap;html=1;" parent="1" vertex="1">
          <mxGeometry x="1540" y="2080" width="120" height="80" as="geometry" />
        </mxCell>
        <mxCell id="UN-YOEddknogz6FVTxAK-11" value="&amp;lt;&amp;lt;include&amp;gt;&amp;gt;" style="html=1;verticalAlign=bottom;labelBackgroundColor=none;endArrow=open;endFill=0;dashed=1;rounded=0;" parent="1" source="UN-YOEddknogz6FVTxAK-10" target="UN-YOEddknogz6FVTxAK-1" edge="1">
          <mxGeometry width="160" relative="1" as="geometry">
            <mxPoint x="1010" y="2230" as="sourcePoint" />
            <mxPoint x="1170" y="2230" as="targetPoint" />
          </mxGeometry>
        </mxCell>
        <mxCell id="UN-YOEddknogz6FVTxAK-16" value="" style="endArrow=classic;html=1;rounded=0;" parent="1" source="UN-YOEddknogz6FVTxAK-3" target="UN-YOEddknogz6FVTxAK-1" edge="1">
          <mxGeometry width="50" height="50" relative="1" as="geometry">
            <mxPoint x="1530" y="2040" as="sourcePoint" />
            <mxPoint x="1580" y="1990" as="targetPoint" />
          </mxGeometry>
        </mxCell>
        <mxCell id="UN-YOEddknogz6FVTxAK-17" value="" style="endArrow=classic;html=1;rounded=0;" parent="1" source="UN-YOEddknogz6FVTxAK-1" target="PiuN6YdRs1sVkymYL6tR-59" edge="1">
          <mxGeometry width="50" height="50" relative="1" as="geometry">
            <mxPoint x="1172" y="2140" as="sourcePoint" />
            <mxPoint x="1504" y="1916" as="targetPoint" />
          </mxGeometry>
        </mxCell>
        <mxCell id="UN-YOEddknogz6FVTxAK-18" value="" style="endArrow=classic;html=1;rounded=0;" parent="1" source="UN-YOEddknogz6FVTxAK-1" target="LGg4eHonx4aCfMcOr95j-172" edge="1">
          <mxGeometry width="50" height="50" relative="1" as="geometry">
            <mxPoint x="980" y="1600" as="sourcePoint" />
            <mxPoint x="1514" y="1926" as="targetPoint" />
          </mxGeometry>
        </mxCell>
        <mxCell id="UN-YOEddknogz6FVTxAK-19" value="" style="endArrow=classic;html=1;rounded=0;" parent="1" source="UN-YOEddknogz6FVTxAK-1" target="LGg4eHonx4aCfMcOr95j-163" edge="1">
          <mxGeometry width="50" height="50" relative="1" as="geometry">
            <mxPoint x="1192" y="2160" as="sourcePoint" />
            <mxPoint x="1524" y="1936" as="targetPoint" />
          </mxGeometry>
        </mxCell>
        <mxCell id="UN-YOEddknogz6FVTxAK-21" value="" style="endArrow=classic;html=1;rounded=0;exitX=1;exitY=0.3333333333333333;exitDx=0;exitDy=0;exitPerimeter=0;" parent="1" source="PiuN6YdRs1sVkymYL6tR-2" target="UN-YOEddknogz6FVTxAK-3" edge="1">
          <mxGeometry width="50" height="50" relative="1" as="geometry">
            <mxPoint x="1202" y="2170" as="sourcePoint" />
            <mxPoint x="1534" y="1946" as="targetPoint" />
          </mxGeometry>
        </mxCell>
        <mxCell id="UN-YOEddknogz6FVTxAK-29" style="edgeStyle=orthogonalEdgeStyle;rounded=0;orthogonalLoop=1;jettySize=auto;html=1;" parent="1" source="UN-YOEddknogz6FVTxAK-23" target="UN-YOEddknogz6FVTxAK-24" edge="1">
          <mxGeometry relative="1" as="geometry" />
        </mxCell>
        <mxCell id="UN-YOEddknogz6FVTxAK-23" value="Actor" style="shape=umlActor;verticalLabelPosition=bottom;verticalAlign=top;html=1;outlineConnect=0;" parent="1" vertex="1">
          <mxGeometry x="60" y="3390" width="160" height="250" as="geometry" />
        </mxCell>
        <mxCell id="UN-YOEddknogz6FVTxAK-28" style="edgeStyle=orthogonalEdgeStyle;rounded=0;orthogonalLoop=1;jettySize=auto;html=1;" parent="1" source="UN-YOEddknogz6FVTxAK-24" target="UN-YOEddknogz6FVTxAK-26" edge="1">
          <mxGeometry relative="1" as="geometry" />
        </mxCell>
        <mxCell id="UN-YOEddknogz6FVTxAK-24" value="&lt;font style=&quot;font-size: 20px;&quot;&gt;Se connecter&lt;/font&gt;" style="ellipse;whiteSpace=wrap;html=1;" parent="1" vertex="1">
          <mxGeometry x="520" y="3485" width="210" height="100" as="geometry" />
        </mxCell>
        <mxCell id="UN-YOEddknogz6FVTxAK-25" value="Saisir identifiant&lt;br&gt;et mot de passe" style="ellipse;whiteSpace=wrap;html=1;" parent="1" vertex="1">
          <mxGeometry x="470" y="3730" width="120" height="80" as="geometry" />
        </mxCell>
        <mxCell id="UN-YOEddknogz6FVTxAK-26" value="&lt;font style=&quot;font-size: 30px;&quot;&gt;Interface Administrateur&lt;/font&gt;" style="ellipse;whiteSpace=wrap;html=1;" parent="1" vertex="1">
          <mxGeometry x="995" y="3460" width="560" height="230" as="geometry" />
        </mxCell>
        <mxCell id="UN-YOEddknogz6FVTxAK-27" value="&amp;lt;&amp;lt;include&amp;gt;&amp;gt;" style="html=1;verticalAlign=bottom;labelBackgroundColor=none;endArrow=open;endFill=0;dashed=1;rounded=0;" parent="1" source="UN-YOEddknogz6FVTxAK-25" target="UN-YOEddknogz6FVTxAK-24" edge="1">
          <mxGeometry width="160" relative="1" as="geometry">
            <mxPoint x="930" y="3740" as="sourcePoint" />
            <mxPoint x="1090" y="3740" as="targetPoint" />
          </mxGeometry>
        </mxCell>
        <mxCell id="UN-YOEddknogz6FVTxAK-31" value="Modifier les descriptions,&lt;br&gt;les prix ou autres détails de service existant" style="ellipse;whiteSpace=wrap;html=1;" parent="1" vertex="1">
          <mxGeometry x="1425" y="2920" width="215" height="110" as="geometry" />
        </mxCell>
        <mxCell id="UN-YOEddknogz6FVTxAK-32" value="Supprimer des services obsolètes" style="ellipse;whiteSpace=wrap;html=1;" parent="1" vertex="1">
          <mxGeometry x="1170" y="2900" width="160" height="100" as="geometry" />
        </mxCell>
        <mxCell id="UN-YOEddknogz6FVTxAK-33" value="Ajouter des nouveaux service" style="ellipse;whiteSpace=wrap;html=1;" parent="1" vertex="1">
          <mxGeometry x="960" y="2970" width="150" height="90" as="geometry" />
        </mxCell>
        <mxCell id="UN-YOEddknogz6FVTxAK-34" value="Consulter / modifier le contenu des servcies proposé" style="ellipse;whiteSpace=wrap;html=1;fontSize=20;" parent="1" vertex="1">
          <mxGeometry x="1140" y="3140" width="320" height="180" as="geometry" />
        </mxCell>
        <mxCell id="UN-YOEddknogz6FVTxAK-36" value="&amp;lt;&amp;lt;include&amp;gt;&amp;gt;" style="html=1;verticalAlign=bottom;labelBackgroundColor=none;endArrow=open;endFill=0;dashed=1;rounded=0;exitX=0.2;exitY=0.902;exitDx=0;exitDy=0;exitPerimeter=0;" parent="1" source="UN-YOEddknogz6FVTxAK-31" target="UN-YOEddknogz6FVTxAK-34" edge="1">
          <mxGeometry width="160" relative="1" as="geometry">
            <mxPoint x="1200" y="3280" as="sourcePoint" />
            <mxPoint x="1360" y="3280" as="targetPoint" />
          </mxGeometry>
        </mxCell>
        <mxCell id="UN-YOEddknogz6FVTxAK-37" value="&amp;lt;&amp;lt;include&amp;gt;&amp;gt;" style="html=1;verticalAlign=bottom;labelBackgroundColor=none;endArrow=open;endFill=0;dashed=1;rounded=0;" parent="1" source="UN-YOEddknogz6FVTxAK-32" target="UN-YOEddknogz6FVTxAK-34" edge="1">
          <mxGeometry width="160" relative="1" as="geometry">
            <mxPoint x="1200" y="3280" as="sourcePoint" />
            <mxPoint x="1360" y="3280" as="targetPoint" />
          </mxGeometry>
        </mxCell>
        <mxCell id="UN-YOEddknogz6FVTxAK-38" value="&amp;lt;&amp;lt;include&amp;gt;&amp;gt;" style="html=1;verticalAlign=bottom;labelBackgroundColor=none;endArrow=open;endFill=0;dashed=1;rounded=0;" parent="1" source="UN-YOEddknogz6FVTxAK-33" target="UN-YOEddknogz6FVTxAK-34" edge="1">
          <mxGeometry width="160" relative="1" as="geometry">
            <mxPoint x="1200" y="3280" as="sourcePoint" />
            <mxPoint x="1360" y="3280" as="targetPoint" />
          </mxGeometry>
        </mxCell>
        <mxCell id="UN-YOEddknogz6FVTxAK-41" value="Mettre à jour les informations du epersonnel en cas de changement&lt;br&gt;" style="ellipse;whiteSpace=wrap;html=1;" parent="1" vertex="1">
          <mxGeometry x="1725" y="2830" width="220" height="90" as="geometry" />
        </mxCell>
        <mxCell id="UN-YOEddknogz6FVTxAK-42" value="Enregistrer les informations personnelles des employés" style="ellipse;whiteSpace=wrap;html=1;fontSize=20;" parent="1" vertex="1">
          <mxGeometry x="1875" y="3040" width="300" height="200" as="geometry" />
        </mxCell>
        <mxCell id="UN-YOEddknogz6FVTxAK-43" value="&amp;lt;&amp;lt;include&amp;gt;&amp;gt;" style="html=1;verticalAlign=bottom;labelBackgroundColor=none;endArrow=open;endFill=0;dashed=1;rounded=0;" parent="1" source="UN-YOEddknogz6FVTxAK-40" target="UN-YOEddknogz6FVTxAK-42" edge="1">
          <mxGeometry width="160" relative="1" as="geometry">
            <mxPoint x="2160" y="3230" as="sourcePoint" />
            <mxPoint x="2320" y="3230" as="targetPoint" />
          </mxGeometry>
        </mxCell>
        <mxCell id="UN-YOEddknogz6FVTxAK-44" value="&amp;lt;&amp;lt;include&amp;gt;&amp;gt;" style="html=1;verticalAlign=bottom;labelBackgroundColor=none;endArrow=open;endFill=0;dashed=1;rounded=0;" parent="1" source="UN-YOEddknogz6FVTxAK-41" target="UN-YOEddknogz6FVTxAK-42" edge="1">
          <mxGeometry width="160" relative="1" as="geometry">
            <mxPoint x="2160" y="3230" as="sourcePoint" />
            <mxPoint x="2320" y="3230" as="targetPoint" />
          </mxGeometry>
        </mxCell>
        <mxCell id="UN-YOEddknogz6FVTxAK-46" value="" style="endArrow=classic;html=1;rounded=0;" parent="1" source="UN-YOEddknogz6FVTxAK-26" target="UN-YOEddknogz6FVTxAK-34" edge="1">
          <mxGeometry width="50" height="50" relative="1" as="geometry">
            <mxPoint x="2210" y="3260" as="sourcePoint" />
            <mxPoint x="2260" y="3210" as="targetPoint" />
          </mxGeometry>
        </mxCell>
        <mxCell id="UN-YOEddknogz6FVTxAK-47" value="" style="endArrow=classic;html=1;rounded=0;" parent="1" source="UN-YOEddknogz6FVTxAK-26" target="UN-YOEddknogz6FVTxAK-42" edge="1">
          <mxGeometry width="50" height="50" relative="1" as="geometry">
            <mxPoint x="2210" y="3260" as="sourcePoint" />
            <mxPoint x="2250" y="3210" as="targetPoint" />
          </mxGeometry>
        </mxCell>
        <mxCell id="UN-YOEddknogz6FVTxAK-48" value="Horaires matin" style="ellipse;whiteSpace=wrap;html=1;" parent="1" vertex="1">
          <mxGeometry x="2425" y="3210" width="120" height="80" as="geometry" />
        </mxCell>
        <mxCell id="UN-YOEddknogz6FVTxAK-49" value="heuire fermeture soir" style="ellipse;whiteSpace=wrap;html=1;" parent="1" vertex="1">
          <mxGeometry x="2885" y="3330" width="120" height="80" as="geometry" />
        </mxCell>
        <mxCell id="UN-YOEddknogz6FVTxAK-50" value="Horaires soir" style="ellipse;whiteSpace=wrap;html=1;" parent="1" vertex="1">
          <mxGeometry x="2595" y="3350" width="120" height="80" as="geometry" />
        </mxCell>
        <mxCell id="UN-YOEddknogz6FVTxAK-51" value="&lt;font style=&quot;font-size: 20px;&quot;&gt;Gérer les horraires d&#39;ouvreture du garage&lt;/font&gt;" style="ellipse;whiteSpace=wrap;html=1;" parent="1" vertex="1">
          <mxGeometry x="1995" y="3440" width="300" height="120" as="geometry" />
        </mxCell>
        <mxCell id="UN-YOEddknogz6FVTxAK-52" value="Heure ouverture soir" style="ellipse;whiteSpace=wrap;html=1;" parent="1" vertex="1">
          <mxGeometry x="2800" y="3190" width="120" height="80" as="geometry" />
        </mxCell>
        <mxCell id="UN-YOEddknogz6FVTxAK-53" value="Heure fermeture matin" style="ellipse;whiteSpace=wrap;html=1;" parent="1" vertex="1">
          <mxGeometry x="2580" y="3060" width="120" height="80" as="geometry" />
        </mxCell>
        <mxCell id="UN-YOEddknogz6FVTxAK-54" value="Heure ouverture matin" style="ellipse;whiteSpace=wrap;html=1;" parent="1" vertex="1">
          <mxGeometry x="2440" y="2980" width="120" height="80" as="geometry" />
        </mxCell>
        <mxCell id="UN-YOEddknogz6FVTxAK-55" value="Jours d&#39;ouverture" style="ellipse;whiteSpace=wrap;html=1;" parent="1" vertex="1">
          <mxGeometry x="2620" y="3530" width="120" height="80" as="geometry" />
        </mxCell>
        <mxCell id="UN-YOEddknogz6FVTxAK-57" value="" style="endArrow=classic;html=1;rounded=0;" parent="1" source="UN-YOEddknogz6FVTxAK-51" target="UN-YOEddknogz6FVTxAK-50" edge="1">
          <mxGeometry width="50" height="50" relative="1" as="geometry">
            <mxPoint x="2640" y="3010" as="sourcePoint" />
            <mxPoint x="2690" y="2960" as="targetPoint" />
          </mxGeometry>
        </mxCell>
        <mxCell id="UN-YOEddknogz6FVTxAK-58" value="" style="endArrow=classic;html=1;rounded=0;" parent="1" source="UN-YOEddknogz6FVTxAK-50" target="UN-YOEddknogz6FVTxAK-49" edge="1">
          <mxGeometry width="50" height="50" relative="1" as="geometry">
            <mxPoint x="2640" y="3010" as="sourcePoint" />
            <mxPoint x="2690" y="2960" as="targetPoint" />
          </mxGeometry>
        </mxCell>
        <mxCell id="UN-YOEddknogz6FVTxAK-59" value="" style="endArrow=classic;html=1;rounded=0;exitX=0.695;exitY=0.03;exitDx=0;exitDy=0;exitPerimeter=0;" parent="1" source="UN-YOEddknogz6FVTxAK-50" target="UN-YOEddknogz6FVTxAK-52" edge="1">
          <mxGeometry width="50" height="50" relative="1" as="geometry">
            <mxPoint x="2640" y="3010" as="sourcePoint" />
            <mxPoint x="2680" y="2970" as="targetPoint" />
          </mxGeometry>
        </mxCell>
        <mxCell id="UN-YOEddknogz6FVTxAK-60" value="" style="endArrow=classic;html=1;rounded=0;" parent="1" source="UN-YOEddknogz6FVTxAK-51" target="UN-YOEddknogz6FVTxAK-55" edge="1">
          <mxGeometry width="50" height="50" relative="1" as="geometry">
            <mxPoint x="2640" y="3010" as="sourcePoint" />
            <mxPoint x="2690" y="2960" as="targetPoint" />
          </mxGeometry>
        </mxCell>
        <mxCell id="UN-YOEddknogz6FVTxAK-61" value="" style="endArrow=classic;html=1;rounded=0;" parent="1" source="UN-YOEddknogz6FVTxAK-48" target="UN-YOEddknogz6FVTxAK-53" edge="1">
          <mxGeometry width="50" height="50" relative="1" as="geometry">
            <mxPoint x="2640" y="3010" as="sourcePoint" />
            <mxPoint x="2690" y="2960" as="targetPoint" />
          </mxGeometry>
        </mxCell>
        <mxCell id="UN-YOEddknogz6FVTxAK-62" value="" style="endArrow=classic;html=1;rounded=0;" parent="1" source="UN-YOEddknogz6FVTxAK-48" target="UN-YOEddknogz6FVTxAK-54" edge="1">
          <mxGeometry width="50" height="50" relative="1" as="geometry">
            <mxPoint x="2640" y="3010" as="sourcePoint" />
            <mxPoint x="2690" y="2980" as="targetPoint" />
          </mxGeometry>
        </mxCell>
        <mxCell id="UN-YOEddknogz6FVTxAK-63" value="" style="endArrow=classic;html=1;rounded=0;" parent="1" source="UN-YOEddknogz6FVTxAK-51" target="UN-YOEddknogz6FVTxAK-48" edge="1">
          <mxGeometry width="50" height="50" relative="1" as="geometry">
            <mxPoint x="2640" y="3010" as="sourcePoint" />
            <mxPoint x="2690" y="2960" as="targetPoint" />
          </mxGeometry>
        </mxCell>
        <mxCell id="UN-YOEddknogz6FVTxAK-40" value="Supprimerles comptes des employés qui ne sont plus actifs" style="ellipse;whiteSpace=wrap;html=1;" parent="1" vertex="1">
          <mxGeometry x="2110" y="2840" width="185" height="110" as="geometry" />
        </mxCell>
        <mxCell id="UN-YOEddknogz6FVTxAK-65" value="" style="endArrow=classic;html=1;rounded=0;" parent="1" source="UN-YOEddknogz6FVTxAK-26" target="UN-YOEddknogz6FVTxAK-51" edge="1">
          <mxGeometry width="50" height="50" relative="1" as="geometry">
            <mxPoint x="2210" y="3420" as="sourcePoint" />
            <mxPoint x="2260" y="3370" as="targetPoint" />
          </mxGeometry>
        </mxCell>
        <mxCell id="UN-YOEddknogz6FVTxAK-66" value="&lt;font style=&quot;font-size: 20px;&quot;&gt;&lt;br&gt;&lt;span style=&quot;color: rgb(0, 0, 0); font-family: Helvetica; font-style: normal; font-variant-ligatures: normal; font-variant-caps: normal; font-weight: 400; letter-spacing: normal; orphans: 2; text-align: center; text-indent: 0px; text-transform: none; widows: 2; word-spacing: 0px; -webkit-text-stroke-width: 0px; background-color: rgb(251, 251, 251); text-decoration-thickness: initial; text-decoration-style: initial; text-decoration-color: initial; float: none; display: inline !important;&quot;&gt;Outils d&#39;analyse&lt;br&gt;&lt;/span&gt;&lt;br&gt;Appronfondir les tendance et comportement utilisateur&lt;br&gt;Amélioré l&#39;expérience utilisateur&lt;br&gt;&lt;/font&gt;" style="shape=lineEllipse;perimeter=ellipsePerimeter;whiteSpace=wrap;html=1;backgroundOutline=1;" parent="1" vertex="1">
          <mxGeometry x="1045" y="3930" width="620" height="270" as="geometry" />
        </mxCell>
        <mxCell id="UN-YOEddknogz6FVTxAK-67" value="Historiques des connexions" style="ellipse;whiteSpace=wrap;html=1;" parent="1" vertex="1">
          <mxGeometry x="1890" y="4110" width="190" height="80" as="geometry" />
        </mxCell>
        <mxCell id="UN-YOEddknogz6FVTxAK-68" value="Historiques messages" style="ellipse;whiteSpace=wrap;html=1;" parent="1" vertex="1">
          <mxGeometry x="1845" y="4260" width="195" height="80" as="geometry" />
        </mxCell>
        <mxCell id="UN-YOEddknogz6FVTxAK-69" value="Historiques témoignages" style="ellipse;whiteSpace=wrap;html=1;" parent="1" vertex="1">
          <mxGeometry x="1800" y="4410" width="230" height="70" as="geometry" />
        </mxCell>
        <mxCell id="UN-YOEddknogz6FVTxAK-70" value="Historiques voitures visités" style="ellipse;whiteSpace=wrap;html=1;" parent="1" vertex="1">
          <mxGeometry x="1640" y="4520" width="200" height="80" as="geometry" />
        </mxCell>
        <mxCell id="UN-YOEddknogz6FVTxAK-71" value="Amélioré l&#39;expérience utilisateur" style="ellipse;whiteSpace=wrap;html=1;" parent="1" vertex="1">
          <mxGeometry x="870" y="4360" width="240" height="80" as="geometry" />
        </mxCell>
        <mxCell id="UN-YOEddknogz6FVTxAK-72" value="Appronfondir les tendance et comportement utilisateur" style="ellipse;whiteSpace=wrap;html=1;" parent="1" vertex="1">
          <mxGeometry x="755" y="4240" width="225" height="80" as="geometry" />
        </mxCell>
        <mxCell id="UN-YOEddknogz6FVTxAK-75" value="&amp;lt;&amp;lt;include&amp;gt;&amp;gt;" style="html=1;verticalAlign=bottom;labelBackgroundColor=none;endArrow=open;endFill=0;dashed=1;rounded=0;" parent="1" source="UN-YOEddknogz6FVTxAK-67" target="UN-YOEddknogz6FVTxAK-66" edge="1">
          <mxGeometry width="160" relative="1" as="geometry">
            <mxPoint x="1080" y="4290" as="sourcePoint" />
            <mxPoint x="1240" y="4290" as="targetPoint" />
          </mxGeometry>
        </mxCell>
        <mxCell id="UN-YOEddknogz6FVTxAK-76" value="&amp;lt;&amp;lt;include&amp;gt;&amp;gt;" style="html=1;verticalAlign=bottom;labelBackgroundColor=none;endArrow=open;endFill=0;dashed=1;rounded=0;" parent="1" source="UN-YOEddknogz6FVTxAK-68" target="UN-YOEddknogz6FVTxAK-66" edge="1">
          <mxGeometry width="160" relative="1" as="geometry">
            <mxPoint x="1080" y="4290" as="sourcePoint" />
            <mxPoint x="1240" y="4290" as="targetPoint" />
          </mxGeometry>
        </mxCell>
        <mxCell id="UN-YOEddknogz6FVTxAK-77" value="&amp;lt;&amp;lt;include&amp;gt;&amp;gt;" style="html=1;verticalAlign=bottom;labelBackgroundColor=none;endArrow=open;endFill=0;dashed=1;rounded=0;exitX=0.089;exitY=0.233;exitDx=0;exitDy=0;exitPerimeter=0;" parent="1" source="UN-YOEddknogz6FVTxAK-69" target="UN-YOEddknogz6FVTxAK-66" edge="1">
          <mxGeometry width="160" relative="1" as="geometry">
            <mxPoint x="1080" y="4290" as="sourcePoint" />
            <mxPoint x="1240" y="4290" as="targetPoint" />
          </mxGeometry>
        </mxCell>
        <mxCell id="UN-YOEddknogz6FVTxAK-78" value="&amp;lt;&amp;lt;include&amp;gt;&amp;gt;" style="html=1;verticalAlign=bottom;labelBackgroundColor=none;endArrow=open;endFill=0;dashed=1;rounded=0;" parent="1" source="UN-YOEddknogz6FVTxAK-70" target="UN-YOEddknogz6FVTxAK-66" edge="1">
          <mxGeometry width="160" relative="1" as="geometry">
            <mxPoint x="1080" y="4290" as="sourcePoint" />
            <mxPoint x="1240" y="4290" as="targetPoint" />
          </mxGeometry>
        </mxCell>
        <mxCell id="UN-YOEddknogz6FVTxAK-81" value="&amp;lt;&amp;lt;extend&amp;gt;&amp;gt;" style="html=1;verticalAlign=bottom;labelBackgroundColor=none;endArrow=open;endFill=0;dashed=1;rounded=0;" parent="1" source="UN-YOEddknogz6FVTxAK-72" target="UN-YOEddknogz6FVTxAK-66" edge="1">
          <mxGeometry width="160" relative="1" as="geometry">
            <mxPoint x="1460" y="4290" as="sourcePoint" />
            <mxPoint x="1350" y="4210" as="targetPoint" />
          </mxGeometry>
        </mxCell>
        <mxCell id="UN-YOEddknogz6FVTxAK-82" value="&amp;lt;&amp;lt;extend&amp;gt;&amp;gt;" style="html=1;verticalAlign=bottom;labelBackgroundColor=none;endArrow=open;endFill=0;dashed=1;rounded=0;" parent="1" source="UN-YOEddknogz6FVTxAK-71" target="UN-YOEddknogz6FVTxAK-66" edge="1">
          <mxGeometry width="160" relative="1" as="geometry">
            <mxPoint x="1460" y="4290" as="sourcePoint" />
            <mxPoint x="1620" y="4290" as="targetPoint" />
          </mxGeometry>
        </mxCell>
        <mxCell id="UN-YOEddknogz6FVTxAK-83" value="" style="endArrow=classic;html=1;rounded=0;" parent="1" source="UN-YOEddknogz6FVTxAK-26" target="UN-YOEddknogz6FVTxAK-66" edge="1">
          <mxGeometry width="50" height="50" relative="1" as="geometry">
            <mxPoint x="1520" y="3740" as="sourcePoint" />
            <mxPoint x="1570" y="3690" as="targetPoint" />
          </mxGeometry>
        </mxCell>
      </root>
    </mxGraphModel>
  </diagram>
</mxfile>
